<svg id="Layer_1" data-name="Layer 1" xmlns="http://www.w3.org/2000/svg" xmlns:xlink="http://www.w3.org/1999/xlink" viewBox="0 0 300 95">
  <defs>
    <style>
      .cls-1 {
        mask: url(#mask);
        filter: url(#luminosity-noclip-2);
      }

      .cls-2 {
        mix-blend-mode: multiply;
        fill: url(#linear-gradient);
      }

      .cls-3 {
        fill: url(#linear-gradient-2);
      }

      .cls-25, .cls-30, .cls-4 {
        fill: #f9486e;
      }

      .cls-4 {
        opacity: 0.2;
      }

      .cls-5 {
        fill: #f6f5fc;
      }

      .cls-6 {
        fill: #fff5f9;
      }

      .cls-7 {
        fill: #daf9fa;
      }

      .cls-8 {
        fill: #bab5f7;
      }

      .cls-9 {
        fill: #5e19f4;
      }

      .cls-10 {
        fill: #e8e8f9;
      }

      .cls-11 {
        fill: #fe617c;
      }

      .cls-12 {
        fill: #ffe9ee;
      }

      .cls-13 {
        fill: #7b67f4;
      }

      .cls-14 {
        fill: #bebdf9;
      }

      .cls-15 {
        fill: #ef1d54;
      }

      .cls-16 {
        fill: none;
        stroke: #201d1e;
        stroke-miterlimit: 10;
        stroke-width: 0.41px;
      }

      .cls-17 {
        fill: #e2e0fc;
      }

      .cls-18 {
        fill: #5836d6;
      }

      .cls-19 {
        fill: #4b25b7;
      }

      .cls-20 {
        mask: url(#mask-2);
      }

      .cls-21 {
        fill: url(#linear-gradient-3);
      }

      .cls-22 {
        fill: #f7d5e2;
      }

      .cls-23 {
        fill: #fce0e9;
      }

      .cls-24 {
        fill: #11057c;
      }

      .cls-26 {
        fill: #edeaf9;
      }

      .cls-27 {
        fill: #cfc9f7;
      }

      .cls-28 {
        fill: #eaeaea;
      }

      .cls-29 {
        fill: #d82b59;
        opacity: 0.5;
      }

      .cls-30 {
        opacity: 0.25;
      }

      .cls-31 {
        filter: url(#luminosity-noclip);
      }
    </style>
    <filter id="luminosity-noclip" x="242.32" y="-8239" width="9.91" height="32766" filterUnits="userSpaceOnUse" color-interpolation-filters="sRGB">
      <feFlood flood-color="#fff" result="bg"/>
      <feBlend in="SourceGraphic" in2="bg"/>
    </filter>
    <mask id="mask" x="242.32" y="-8239" width="9.91" height="32766" maskUnits="userSpaceOnUse">
      <g class="cls-31"/>
    </mask>
    <linearGradient id="linear-gradient" x1="247.25" y1="45.85" x2="247.14" y2="51.45" gradientUnits="userSpaceOnUse">
      <stop offset="0"/>
      <stop offset="1" stop-color="#fff"/>
    </linearGradient>
    <linearGradient id="linear-gradient-2" x1="-0.5" y1="47.5" x2="300.5" y2="47.5" gradientUnits="userSpaceOnUse">
      <stop offset="0" stop-color="#f9486e"/>
      <stop offset="1" stop-color="#fffca5"/>
    </linearGradient>
    <filter id="luminosity-noclip-2" x="242.32" y="42.25" width="9.91" height="10.06" filterUnits="userSpaceOnUse" color-interpolation-filters="sRGB">
      <feFlood flood-color="#fff" result="bg"/>
      <feBlend in="SourceGraphic" in2="bg"/>
    </filter>
    <mask id="mask-2" x="242.32" y="42.25" width="9.91" height="10.06" maskUnits="userSpaceOnUse">
      <g class="cls-1">
        <path class="cls-2" d="M244.19,50.56s-.09,1.67,3.39,1.74c2.8.06,3.3-1.33,3.3-1.33l1.35-3.9-9.91-4.82Z"/>
      </g>
    </mask>
    <linearGradient id="linear-gradient-3" x1="247.25" y1="45.85" x2="247.14" y2="51.45" gradientUnits="userSpaceOnUse">
      <stop offset="0" stop-color="#fff"/>
      <stop offset="1" stop-color="#f9486e"/>
    </linearGradient>
  </defs>
  <rect class="cls-3" x="-0.5" y="-0.5" width="301" height="96"/>
  <circle class="cls-4" cx="224.32" cy="75.44" r="45.88" transform="translate(12.36 180.72) rotate(-45)"/>
  <g>
    <polygon class="cls-5" points="208.13 68.65 212.08 66.37 216.02 68.65 212.08 70.93 208.13 68.65"/>
    <polygon class="cls-6" points="211.73 64.68 213.96 63.39 216.19 64.68 213.96 65.97 211.73 64.68"/>
    <polygon class="cls-6" points="232.04 79.88 235.99 77.6 239.93 79.88 235.98 82.16 232.04 79.88"/>
    <polygon class="cls-7" points="235.64 75.91 237.87 74.62 240.09 75.91 237.87 77.19 235.64 75.91"/>
    <polygon class="cls-5" points="189.07 71.03 193.01 68.75 196.96 71.03 193.01 73.31 189.07 71.03"/>
    <polygon class="cls-7" points="192.66 67.05 194.89 65.77 197.12 67.05 194.89 68.34 192.66 67.05"/>
    <polygon class="cls-6" points="249.1 58.59 253.05 56.32 256.99 58.59 253.04 60.87 249.1 58.59"/>
    <polygon class="cls-7" points="252.7 54.62 254.93 53.34 257.16 54.62 254.93 55.91 252.7 54.62"/>
    <polygon class="cls-5" points="219.99 63.64 228.96 58.46 237.93 63.64 228.95 68.82 219.99 63.64"/>
    <polygon class="cls-6" points="233.22 49.86 237.16 47.59 241.1 49.86 237.16 52.14 233.22 49.86"/>
    <polygon class="cls-7" points="235.31 55.91 237.54 54.62 239.77 55.91 237.54 57.2 235.31 55.91"/>
    <polygon class="cls-7" points="237.16 66.37 239.39 65.09 241.62 66.37 239.39 67.66 237.16 66.37"/>
    <polygon class="cls-6" points="218.52 55.55 222.46 53.27 226.41 55.55 222.46 57.82 218.52 55.55"/>
    <polygon class="cls-7" points="208.43 81.27 210.66 79.98 212.88 81.27 210.65 82.55 208.43 81.27"/>
    <polygon class="cls-8" points="214.47 83.53 214.42 83.5 193.2 71.25 214.37 59.02 214.38 53 214.58 53 214.57 59.14 214.52 59.17 193.6 71.25 214.47 83.3 230.28 74.17 235.55 77.22 263 61.36 250.84 54.3 250.94 54.13 263.4 61.36 235.55 77.45 230.28 74.4 214.47 83.53"/>
    <polygon class="cls-5" points="264 66.89 253.26 60.7 236.07 70.62 246.81 76.82 264 66.89"/>
    <polygon class="cls-9" points="264 66.89 264 67.82 246.82 77.75 236.07 71.54 236.07 70.62 246.82 76.82 264 66.89"/>
    <path class="cls-10" d="M256.15,71.43s-7.63-8-20.08-.81l10.75,6.2Z"/>
    <polygon class="cls-9" points="245.2 70.18 242.61 68.68 238.72 70.92 241.31 72.42 245.2 70.18"/>
    <path class="cls-11" d="M254,63a.77.77,0,0,1-.14.44l.43-.25a.44.44,0,0,0,0-.77l-.82-.48a.49.49,0,0,0-.44,0l-.41.24a1.27,1.27,0,0,1,.34-.05A1,1,0,0,1,254,63Z"/>
    <path class="cls-11" d="M251.36,63.7l.82.48a.45.45,0,0,0,.45,0l.5-.29H253a1,1,0,0,1-1-.88.76.76,0,0,1,.23-.55l-.8.46A.44.44,0,0,0,251.36,63.7Z"/>
    <polygon class="cls-11" points="243.16 74.71 244.01 75.19 244.01 75.19 244.22 75.32 245.31 75.95 262.5 66.03 262.5 66.03 261.39 65.39 261.18 65.26 260.35 64.78 260.35 64.79 243.16 74.71"/>
    <g>
      <path class="cls-12" d="M244.11,75.37l.06,0,.6-.35a.1.1,0,0,0,0-.15.12.12,0,0,0-.16,0l-.6.35a.11.11,0,0,0,0,.16A.11.11,0,0,0,244.11,75.37Z"/>
      <path class="cls-12" d="M245.84,74.25a.13.13,0,0,1,0-.16l1.23-.71a.12.12,0,0,1,.16.05.11.11,0,0,1,0,.15l-1.23.71a.07.07,0,0,1-.06,0A.11.11,0,0,1,245.84,74.25Zm2.46-1.42a.13.13,0,0,1,0-.16l1.23-.71a.12.12,0,0,1,.16.05.13.13,0,0,1,0,.16l-1.23.71h-.06A.11.11,0,0,1,248.3,72.83Zm2.46-1.42a.11.11,0,0,1,0-.16l1.23-.7a.11.11,0,0,1,.16,0,.12.12,0,0,1-.05.16l-1.22.71h-.06A.11.11,0,0,1,250.76,71.41ZM253.21,70a.11.11,0,0,1,0-.15l1.23-.71a.11.11,0,0,1,.16,0,.12.12,0,0,1-.05.16l-1.23.71h-.05A.14.14,0,0,1,253.21,70Zm2.46-1.41a.12.12,0,0,1,.05-.16l1.22-.71a.11.11,0,0,1,.16,0,.11.11,0,0,1,0,.16l-1.23.71h-.06A.12.12,0,0,1,255.67,68.58Zm2.46-1.42a.12.12,0,0,1,0-.16l1.23-.71a.11.11,0,0,1,.16,0,.12.12,0,0,1,0,.16l-1.23.71h-.06A.12.12,0,0,1,258.13,67.16Z"/>
      <path class="cls-12" d="M260.59,65.74a.12.12,0,0,0,.1.05h.06l.6-.35a.08.08,0,0,0,0,0h0l-.21-.13h0l-.54.32A.12.12,0,0,0,260.59,65.74Z"/>
    </g>
    <path class="cls-9" d="M229.68,14.23a1,1,0,0,0-.61,0l-.22.1-.29.17-34,19.65A2.25,2.25,0,0,0,193.4,36V63.49a1.06,1.06,0,0,0,.07.37,1.11,1.11,0,0,0,.36.44l-1-.48h0l-.12-.06h0a1,1,0,0,1-.49-.84V35.46a2.22,2.22,0,0,1,1.11-1.92l34.33-19.82a.94.94,0,0,1,.83-.06l.15.07Z"/>
    <path class="cls-5" d="M230.28,15.12v27.6a2,2,0,0,1-1,1.74L194.85,64.33a.94.94,0,0,1-1,0h0a1.11,1.11,0,0,1-.36-.44,1.06,1.06,0,0,1-.07-.37V36a2.25,2.25,0,0,1,1.12-1.92l34-19.65.29-.17.22-.1a1,1,0,0,1,.61,0l.07,0A1,1,0,0,1,230.28,15.12Z"/>
    <path class="cls-9" d="M194.72,36.4V61.6a.74.74,0,0,0,1.11.64l12.64-7.3a1.49,1.49,0,0,0,.74-1.28V28.31a.67.67,0,0,0-1-.58l-12.71,7.33A1.55,1.55,0,0,0,194.72,36.4Z"/>
    <path class="cls-13" d="M196,49.15V59.53a.62.62,0,0,0,.93.54l10.25-5.92a1.35,1.35,0,0,0,.67-1.16V42.53a.55.55,0,0,0-.81-.47l-10.43,6A1.23,1.23,0,0,0,196,49.15Z"/>
    <polygon class="cls-14" points="198.67 51.29 198.67 55.85 199.99 55.09 199.99 50.53 198.67 51.29"/>
    <polygon class="cls-14" points="200.65 48.62 200.65 54.71 201.97 53.95 201.97 47.86 200.65 48.62"/>
    <polygon class="cls-14" points="202.62 50.52 202.63 53.57 203.94 52.81 203.94 49.76 202.62 50.52"/>
    <polygon class="cls-14" points="204.6 47.86 204.6 52.43 205.92 51.67 205.92 47.1 204.6 47.86"/>
    <path class="cls-5" d="M206.17,36.5a6.46,6.46,0,0,1-.36,2A7.64,7.64,0,0,1,202,42.94c-2.32,1-4.21-.21-4.23-2.75,0,0,0-.11,0-.17a7.62,7.62,0,0,1,4.17-6.26,3,3,0,0,1,3.28.27A3.26,3.26,0,0,1,206.17,36.5Z"/>
    <path class="cls-11" d="M206.17,36.5a6.46,6.46,0,0,1-.36,2L202,38.18,205.22,34A3.26,3.26,0,0,1,206.17,36.5Z"/>
    <path class="cls-10" d="M205.81,38.55A7.63,7.63,0,0,1,202,42.94l0-4.76Z"/>
    <path class="cls-14" d="M201.94,33.76l0,4.42L197.77,40A7.62,7.62,0,0,1,201.94,33.76Z"/>
    <path class="cls-13" d="M205.22,34,202,38.18l0-4.42A3,3,0,0,1,205.22,34Z"/>
    <path class="cls-14" d="M213.16,26V50.59a.94.94,0,0,0,1.42.82l13.28-7.66a2.2,2.2,0,0,0,1.1-1.91V17a.74.74,0,0,0-1.11-.64l-13.73,7.93A1.91,1.91,0,0,0,213.16,26Z"/>
    <path class="cls-13" d="M214.47,38.48V48.86a.63.63,0,0,0,1,.55l11.49-6.64a1.45,1.45,0,0,0,.72-1.26V31.36a.68.68,0,0,0-1-.58l-11.56,6.67A1.18,1.18,0,0,0,214.47,38.48Z"/>
    <path class="cls-10" d="M216.76,44.65l-.1,0a.21.21,0,0,1-.07-.28l1.32-2.3,1.3-.75,1.31-2.25,1.29-.75,1.3-2.25,1.35-.78a.22.22,0,0,1,.28.07.21.21,0,0,1-.08.28l-1.25.72-1.3,2.25-1.3.75-1.3,2.26-1.3.75-1.27,2.2A.2.2,0,0,1,216.76,44.65Z"/>
    <polygon class="cls-10" points="224.56 34.7 224.56 36.2 225.26 35.04 224.56 34.7"/>
    <g>
      <path class="cls-10" d="M218.06,42.78a.08.08,0,0,1-.07-.08v-.5a.08.08,0,0,1,.07-.08.09.09,0,0,1,.08.08v.5A.09.09,0,0,1,218.06,42.78Z"/>
      <path class="cls-10" d="M218.06,44.11A.07.07,0,0,1,218,44v-.66a.08.08,0,0,1,.07-.08.09.09,0,0,1,.08.08V44A.08.08,0,0,1,218.06,44.11Z"/>
      <path class="cls-10" d="M218.06,45.28a.08.08,0,0,1-.07-.08v-.5a.08.08,0,0,1,.07-.08.09.09,0,0,1,.08.08v.5A.09.09,0,0,1,218.06,45.28Z"/>
    </g>
    <g>
      <path class="cls-10" d="M219.36,42a.08.08,0,0,1-.07-.08v-.5a.08.08,0,0,1,.07-.08.09.09,0,0,1,.08.08V42A.09.09,0,0,1,219.36,42Z"/>
      <path class="cls-10" d="M219.36,43.36a.08.08,0,0,1-.07-.08v-.66a.08.08,0,0,1,.07-.08.09.09,0,0,1,.08.08v.66A.09.09,0,0,1,219.36,43.36Z"/>
      <path class="cls-10" d="M219.36,44.53a.08.08,0,0,1-.07-.08V44a.08.08,0,0,1,.07-.08.09.09,0,0,1,.08.08v.5A.09.09,0,0,1,219.36,44.53Z"/>
    </g>
    <g>
      <path class="cls-10" d="M220.66,39.77h0a.07.07,0,0,1-.07-.07v-.5a.08.08,0,0,1,.07-.08h0a.09.09,0,0,1,.08.08v.5A.08.08,0,0,1,220.66,39.77Z"/>
      <path class="cls-10" d="M220.66,42.11h0a.08.08,0,0,1-.07-.08V40.87a.07.07,0,0,1,.07-.08h0a.08.08,0,0,1,.08.08V42A.09.09,0,0,1,220.66,42.11Z"/>
      <path class="cls-10" d="M220.66,43.78h0a.08.08,0,0,1-.07-.08v-.5a.08.08,0,0,1,.07-.08h0a.09.09,0,0,1,.08.08v.5A.09.09,0,0,1,220.66,43.78Z"/>
    </g>
    <g>
      <path class="cls-10" d="M222,39a.07.07,0,0,1-.07-.07v-.5a.08.08,0,0,1,.07-.08.09.09,0,0,1,.08.08V39A.08.08,0,0,1,222,39Z"/>
      <path class="cls-10" d="M222,41.36a.08.08,0,0,1-.07-.08V40.12A.07.07,0,0,1,222,40a.08.08,0,0,1,.08.08v1.16A.09.09,0,0,1,222,41.36Z"/>
      <path class="cls-10" d="M222,43a.08.08,0,0,1-.07-.08v-.5a.08.08,0,0,1,.07-.08.09.09,0,0,1,.08.08V43A.09.09,0,0,1,222,43Z"/>
    </g>
    <g>
      <path class="cls-10" d="M223.26,36.77a.07.07,0,0,1-.07-.07v-.51a.07.07,0,0,1,.07-.07.08.08,0,0,1,.08.07v.51A.08.08,0,0,1,223.26,36.77Z"/>
      <path class="cls-10" d="M223.26,40.77a.07.07,0,0,1-.07-.07v-1a.08.08,0,0,1,.07-.08.09.09,0,0,1,.08.08v1A.08.08,0,0,1,223.26,40.77Zm0-2a.07.07,0,0,1-.07-.07v-1a.08.08,0,0,1,.07-.08.09.09,0,0,1,.08.08v1A.08.08,0,0,1,223.26,38.77Z"/>
      <path class="cls-10" d="M223.26,42.28a.08.08,0,0,1-.07-.08v-.5a.08.08,0,0,1,.07-.08.09.09,0,0,1,.08.08v.5A.09.09,0,0,1,223.26,42.28Z"/>
    </g>
    <g>
      <path class="cls-9" d="M217.93,30.8a1.22,1.22,0,0,0,.42-.4,1.1,1.1,0,0,0,.19-.55l.43-.23a1.88,1.88,0,0,1-.15.6,2.1,2.1,0,0,1-.38.6,1.63,1.63,0,0,1-.51.42.75.75,0,0,1-.87,0,1.27,1.27,0,0,1-.33-1v-.09a2.7,2.7,0,0,1,.13-.89,2.4,2.4,0,0,1,.4-.78,1.88,1.88,0,0,1,.62-.54.77.77,0,0,1,.75-.08.69.69,0,0,1,.32.65l-.42.23a.46.46,0,0,0-.21-.39.42.42,0,0,0-.43,0,1.23,1.23,0,0,0-.53.59,2.06,2.06,0,0,0-.18,1v.1a1.09,1.09,0,0,0,.2.74C217.51,30.93,217.69,30.93,217.93,30.8Z"/>
      <path class="cls-9" d="M220.74,27a1.46,1.46,0,0,0-.23.1,1.22,1.22,0,0,0-.59.78l0,2.24-.46.25,0-3.16.44-.24v.36a1.43,1.43,0,0,1,.63-.76.43.43,0,0,1,.2-.07Z"/>
      <path class="cls-9" d="M221.57,26l0,.34a1.9,1.9,0,0,1,.78-.83c.37-.2.63-.17.77.1a2.15,2.15,0,0,1,.34-.56,1.76,1.76,0,0,1,.49-.41c.59-.31.89-.11.91.62l0,2.12-.46.24,0-2.08c0-.23,0-.37-.13-.44s-.24,0-.44.07a1.1,1.1,0,0,0-.42.41,1.2,1.2,0,0,0-.18.59l0,2.09-.46.25,0-2.07c0-.46-.2-.59-.58-.38a1.27,1.27,0,0,0-.6.78l0,2.3-.45.25,0-3.16Z"/>
    </g>
    <path class="cls-15" d="M214.5,20.5a.38.38,0,0,0-.36,0l-.12.07-.33.2-5.19,3a.79.79,0,0,0-.39.68v6.42a.39.39,0,0,0,.16.33l-.6-.43a.44.44,0,0,1-.24-.38V24a.79.79,0,0,1,.39-.68L213.47,20a.33.33,0,0,1,.37,0l0,0Z"/>
    <path class="cls-11" d="M233.91,27.13v6.54a.73.73,0,0,1-.37.64L228,37.54a.44.44,0,0,1-.47,0h0a.42.42,0,0,1-.16-.33V30.75a.79.79,0,0,1,.39-.68l5.19-3,.33-.2.12-.07a.38.38,0,0,1,.36,0A.38.38,0,0,1,233.91,27.13Z"/>
    <path class="cls-15" d="M233.71,26.81a.38.38,0,0,0-.36,0l-.12.07-.33.2-5.19,3a.79.79,0,0,0-.39.68v6.42a.42.42,0,0,0,.16.33l-.59-.43a.41.41,0,0,1-.24-.38V30.27a.77.77,0,0,1,.39-.68l5.64-3.25a.35.35,0,0,1,.38,0l.05,0Z"/>
    <path class="cls-11" d="M196.72,48.71v6.54a.74.74,0,0,1-.38.64l-5.57,3.22a.42.42,0,0,1-.47,0h0a.41.41,0,0,1-.16-.33V52.33a.79.79,0,0,1,.39-.68l5.19-3,.33-.19.12-.07a.39.39,0,0,1,.35,0A.37.37,0,0,1,196.72,48.71Z"/>
    <path class="cls-15" d="M196.51,48.38a.39.39,0,0,0-.35,0l-.12.07-.33.19-5.19,3a.79.79,0,0,0-.39.68v6.42a.41.41,0,0,0,.16.33l-.6-.43a.42.42,0,0,1-.24-.38V51.85a.79.79,0,0,1,.39-.68l5.65-3.26a.35.35,0,0,1,.37,0l0,0Z"/>
    <path class="cls-11" d="M214.7,20.82v6.54a.74.74,0,0,1-.38.64l-5.57,3.23a.44.44,0,0,1-.47,0h0a.39.39,0,0,1-.16-.33V24.44a.79.79,0,0,1,.39-.68l5.19-3,.33-.2.12-.07a.38.38,0,0,1,.36,0A.36.36,0,0,1,214.7,20.82Z"/>
    <path class="cls-12" d="M209.69,26.34a2.11,2.11,0,0,0,0,.25l-.27.25.15.63.27-.25a.43.43,0,0,0,.11.12l-.14.39.5.08.14-.39a.89.89,0,0,0,.19-.07l.07.3.55-.52-.07-.3a2,2,0,0,0,.16-.24l.23,0,.29-.81-.23,0a2.29,2.29,0,0,0,0-.25l.27-.25-.15-.63-.26.25a.74.74,0,0,0-.12-.13l.14-.38-.5-.08-.14.38-.18.08-.07-.3-.56.52.07.3a1.14,1.14,0,0,0-.15.23l-.24,0-.29.81Zm.59-.34c.12-.33.39-.58.59-.54s.28.33.16.66-.39.58-.59.55S210.16,26.34,210.28,26Z"/>
    <path class="cls-12" d="M212.3,25.76s0,.09,0,.13l-.13.12.07.31.13-.12.06.06-.07.19.25,0,.07-.19.09,0,0,.15.27-.26,0-.15.07-.11.12,0,.14-.4-.11,0s0-.09,0-.13l.13-.12-.07-.31-.13.12a.17.17,0,0,0-.06-.06l.07-.19-.25,0-.07.19-.09,0,0-.15-.28.25,0,.15-.07.12-.12,0-.14.4Zm.3-.16c.06-.17.19-.29.29-.27s.13.16.07.32-.19.29-.29.28S212.54,25.76,212.6,25.6Z"/>
    <path class="cls-12" d="M231.67,32.41a1.48,1.48,0,0,1-.76,1.14V34l-.3.14V33.7l-.22.08h0a1.07,1.07,0,0,1-.51,0l0-.17.07-.2a1.23,1.23,0,0,0,.69-.11.89.89,0,0,0,.57-.72.26.26,0,0,0-.24-.29,1.32,1.32,0,0,0-.3,0,.92.92,0,0,1-.64-.1l-.09-.09a.62.62,0,0,1,0-.25V31.8a1.25,1.25,0,0,1,.3-.64,1.63,1.63,0,0,1,.27-.25.91.91,0,0,1,.16-.11v-.47l.08,0,.22-.1v.45l.24-.08.1,0a.91.91,0,0,1,.28,0l-.12.36a1.13,1.13,0,0,0-.61.12.77.77,0,0,0-.51.63s0,.07,0,.09h0c0,.17.22.19.58.17h.3l.15,0a.4.4,0,0,1,.13.07h0A.46.46,0,0,1,231.67,32.41Z"/>
    <path class="cls-12" d="M195,53.36a2.58,2.58,0,0,1-.19,1,2.3,2.3,0,0,1-1.38,1.4,1.19,1.19,0,0,1-1.42-.54,1.83,1.83,0,0,1-.25-.91,2.55,2.55,0,0,1,1.57-2.43C194.24,51.64,195,52.29,195,53.36Z"/>
    <path class="cls-15" d="M194.83,54.39a2.3,2.3,0,0,1-1.38,1.4,1.19,1.19,0,0,1-1.42-.54,2.29,2.29,0,0,1,1.37-1.4A1.2,1.2,0,0,1,194.83,54.39Z"/>
    <path class="cls-15" d="M193.87,52.94a.77.77,0,0,1-.47.73c-.27.08-.49-.12-.5-.43a.76.76,0,0,1,.47-.73C193.63,52.43,193.86,52.62,193.87,52.94Z"/>
    <path class="cls-5" d="M209.86,74.35a.65.65,0,0,1-.33.57l-1.1.63-5.55,3.21a1.57,1.57,0,0,1-1.54,0l-5.56-3.2L194.73,75a.71.71,0,0,1-.35-.61h0a.69.69,0,0,1,.35-.6l6.57-3.8a1.62,1.62,0,0,1,1.62,0l6.61,3.82A.66.66,0,0,1,209.86,74.35Z"/>
    <path class="cls-9" d="M209.86,74.35v2.42a.66.66,0,0,1-.33.58l-6.65,3.83a1.52,1.52,0,0,1-1.54,0l-6.61-3.81a.68.68,0,0,1-.35-.59V74.34a.71.71,0,0,0,.35.61l1.05.61,5.56,3.2a1.57,1.57,0,0,0,1.54,0l5.55-3.21,1.1-.63A.65.65,0,0,0,209.86,74.35Z"/>
    <path class="cls-5" d="M229.3,76.65a.67.67,0,0,1-.34.57l-1.09.63-5.55,3.21a1.58,1.58,0,0,1-1.55,0l-5.55-3.2-1.05-.61a.71.71,0,0,1-.35-.61h0a.69.69,0,0,1,.35-.6l6.57-3.8a1.62,1.62,0,0,1,1.62,0l6.6,3.82A.67.67,0,0,1,229.3,76.65Z"/>
    <path class="cls-9" d="M229.3,76.65v2.42a.67.67,0,0,1-.34.58l-6.64,3.83a1.54,1.54,0,0,1-1.55,0l-6.6-3.81a.68.68,0,0,1-.35-.6V76.64a.71.71,0,0,0,.35.61l1.05.61,5.55,3.2a1.58,1.58,0,0,0,1.55,0l5.55-3.21,1.09-.63A.67.67,0,0,0,229.3,76.65Z"/>
    <g>
      <path class="cls-9" d="M204,65.35a1.89,1.89,0,0,0-.61,0l-.22.05a3.74,3.74,0,0,0-.52.19v-.53a2.32,2.32,0,0,1,.88-.1Z"/>
      <path class="cls-9" d="M203.25,69.94A2,2,0,0,1,202,71.5a2.59,2.59,0,0,1-1.5.25l-.48-.36a2.57,2.57,0,0,0,1.5-.25,2,2,0,0,0,1.25-1.56.79.79,0,0,0,0-.28A.59.59,0,0,1,203.25,69.94Z"/>
    </g>
    <polygon class="cls-14" points="202.62 64.63 202.13 64.85 202.13 64.85 201.97 64.93 201.49 64.57 202.14 64.27 202.62 64.63"/>
    <path class="cls-13" d="M202,64.93v1c-.13.08-.24.16-.36.25a1.93,1.93,0,0,0-.58.55,2.64,2.64,0,0,0-.64,1.38,1,1,0,0,0,0,.17,1.05,1.05,0,0,0,.12.54.61.61,0,0,0,.18.21l-.44-.33,0,0a.08.08,0,0,1,0,0,.89.89,0,0,1-.26-.71,3,3,0,0,1,1.59-2.35v-1Z"/>
    <path class="cls-9" d="M203.82,68.58a1,1,0,0,0-.29-.16l-.32-.07a2.85,2.85,0,0,0-.66,0c-.78,0-1.17,0-1.26-.38a3.25,3.25,0,0,0,.79,0,2,2,0,0,1,1.25.22h0Z"/>
    <path class="cls-16" d="M203.34,68.21h0Z"/>
    <polygon class="cls-13" points="200.5 71.75 200.36 72.19 200.24 72.54 199.77 72.18 200.02 71.39 200.5 71.75"/>
    <path class="cls-9" d="M201.84,72.26v1l-.48-.36v-.49Z"/>
    <path class="cls-17" d="M204.16,69.45a3.21,3.21,0,0,1-1.67,2.48V73l-.66.3v-1l-.48.18h0a2.24,2.24,0,0,1-1.11.1l.12-.35.14-.44a2.59,2.59,0,0,0,1.5-.25,2,2,0,0,0,1.25-1.56.59.59,0,0,0-.52-.64,2.62,2.62,0,0,0-.65,0,2.05,2.05,0,0,1-1.41-.22.61.61,0,0,1-.18-.21,1.05,1.05,0,0,1-.12-.54,1,1,0,0,1,0-.17,2.64,2.64,0,0,1,.64-1.38,3.8,3.8,0,0,1,.58-.55c.12-.09.23-.17.36-.25v-1l.16-.08.48-.22v1a3.74,3.74,0,0,1,.52-.19l.22-.05a1.89,1.89,0,0,1,.61,0l-.26.79a2.4,2.4,0,0,0-1.32.26,1.67,1.67,0,0,0-1.11,1.37,1,1,0,0,0,0,.19h0c.09.36.48.42,1.26.38a2.85,2.85,0,0,1,.66,0l.32.07a1,1,0,0,1,.29.16h0A1,1,0,0,1,204.16,69.45Z"/>
    <path class="cls-14" d="M225.53,68.31a6,6,0,0,1-.34,1.93,7.23,7.23,0,0,1-3.61,4.15,3.13,3.13,0,0,1-2.45.15l-.1-.05h0l-.3-.17a1.61,1.61,0,0,1-.28-.24,3.12,3.12,0,0,1-.84-2.28v-.16a7.19,7.19,0,0,1,3.95-5.91,3.45,3.45,0,0,1,1.65-.33l.21,0,.13,0,.18,0,.19.06a2.22,2.22,0,0,1,.38.18h0a1.7,1.7,0,0,1,.34.26A3.06,3.06,0,0,1,225.53,68.31Z"/>
    <path class="cls-11" d="M225.53,68.31a6,6,0,0,1-.34,1.93,7.23,7.23,0,0,1-3.61,4.15l0-8.67a2.76,2.76,0,0,1,3.09.26A3.06,3.06,0,0,1,225.53,68.31Z"/>
    <path class="cls-10" d="M225.19,70.24a7.23,7.23,0,0,1-3.61,4.15l0-4.5Z"/>
    <path class="cls-18" d="M221.54,65.72l0,4.17-4,1.74A7.16,7.16,0,0,1,221.54,65.72Z"/>
    <path class="cls-13" d="M224.63,66l-3.07,3.91,0-4.17A2.76,2.76,0,0,1,224.63,66Z"/>
    <path class="cls-9" d="M223.9,65.53l-.19-.06-.18,0-.13,0-.21,0a3.45,3.45,0,0,0-1.65.33,7.19,7.19,0,0,0-3.95,5.91v.16a3.12,3.12,0,0,0,.84,2.28,1.61,1.61,0,0,0,.28.24l.3.17-.59-.27h0l-.09,0a2.81,2.81,0,0,1-1.41-2.69V71.3a7.17,7.17,0,0,1,3.94-5.9,3.07,3.07,0,0,1,2.46-.15h0l.17.08Z"/>
    <path class="cls-10" d="M249,41.14a2.4,2.4,0,0,1-2.52-.8l-6.7-6.47c-1.16-1.12-1.67-2.81-1.13-3.78a.86.86,0,0,1,.1-.16l.07-.08v0l0,0,0-.05.08-.07,0,0,.1-.07h0l.1-.05a1.52,1.52,0,0,1,.28-.09l-.09.14c-.53,1,0,2.67,1.13,3.79l6.71,6.47a4,4,0,0,0,.32.28l.07,0,.07,0,.15.1a1.86,1.86,0,0,0,.33.19l.16.08.13,0h0Z"/>
    <path class="cls-9" d="M251.11,39.9v.15s0,.06,0,.09a.86.86,0,0,1,0,.16l-.57-.55-.48-.46c-.11-.11-.22-.22-.32-.34h0a1.42,1.42,0,0,0-.07-.22l0-.12a.17.17,0,0,1,0-.05l0-.06a1.09,1.09,0,0,0-.09-.23c0-.06-.06-.12-.09-.19a2.69,2.69,0,0,0-.16-.29l-.14-.22a1.13,1.13,0,0,0-.1-.13.22.22,0,0,0-.05-.08l0,0-.11-.13h0v-.05a.08.08,0,0,1,0,0h0c-.1-.12-.21-.23-.32-.34l-.48-.46-.58-.56-.53-.51-5.12-4.94a2.91,2.91,0,0,0-1.92-.92h-.29a1.52,1.52,0,0,0-.28.09l-.1.05h0l-.1.07,0,0-.08.07,0,.05,0,0v0l-.07.08a.86.86,0,0,0-.1.16c-.54,1,0,2.66,1.13,3.78l6.7,6.47a2.4,2.4,0,0,0,2.52.8l1.19,1.15s0,0,0,0a2.5,2.5,0,0,1-3.58-.29l-8-7.77a4.59,4.59,0,0,1-1-5.2,2.52,2.52,0,0,1,.73-.84h0l.21-.14h0a1.59,1.59,0,0,1,.27-.12,2.22,2.22,0,0,1,1.12-.11,3.18,3.18,0,0,1,1.69.89l5.84,5.64,1.17,1.13,1,1A4.83,4.83,0,0,1,251,39c0,.14,0,.29.07.44a.28.28,0,0,0,0,.09v.13A1.7,1.7,0,0,1,251.11,39.9Z"/>
    <path class="cls-10" d="M251.63,40.82l-.54-.52a.86.86,0,0,0,0-.16s0-.06,0-.09V39.9a1.7,1.7,0,0,0,0-.22v-.13a.28.28,0,0,1,0-.09c0-.15,0-.3-.07-.44a4.83,4.83,0,0,0-1.33-2.53l-1-1-1.17-1.13-5.84-5.64a3.18,3.18,0,0,0-1.69-.89,2.22,2.22,0,0,0-1.12.11,1.59,1.59,0,0,0-.27.12l.46-.29a3,3,0,0,1,.38-.24h0a2.64,2.64,0,0,1,3,.7l5.84,5.63h0L249.42,35l.45.43h0l.59.57a4.77,4.77,0,0,1,1.34,2.53A4.2,4.2,0,0,1,251.63,40.82Z"/>
    <path class="cls-9" d="M260.7,48.16a.16.16,0,0,1,0,.07,2.45,2.45,0,0,1-.43.56,2.63,2.63,0,0,1-.38.3,2.6,2.6,0,0,1-3.2-.59l-5.84-5.63h0l-1.19-1.15-.51-.49h0l-.5-.49a4.69,4.69,0,0,1-1.15-4.87l.53.51.58.56a3.88,3.88,0,0,0,1.28,3.42l.47.46,1.12,1.07,5.11,4.94a3,3,0,0,0,1.93.93h.13l.17,0,.06,0,.07,0a.76.76,0,0,0,.16-.06l.1,0,.1-.07.05,0,.09-.09,0,0,.08-.1h0l.09-.14a2.29,2.29,0,0,0,.16-1.49,4.57,4.57,0,0,0-1.29-2.3l-6.71-6.47-.15-.14a2.87,2.87,0,0,0-.46-.34l-.12-.08-.2-.11-.06,0-.11,0-.11-.05-.13,0h0l-.45-.44-1.16-1.12,0,0h0a2.7,2.7,0,0,1,2.81.78l8,7.77A4.83,4.83,0,0,1,261,45.5,4,4,0,0,1,260.7,48.16Z"/>
    <path class="cls-10" d="M259.53,47.23h0l-.08.1,0,0-.09.09-.05,0-.1.07-.1,0a.76.76,0,0,1-.16.06l-.07,0-.06,0-.17,0h-.13a3,3,0,0,1-1.93-.93l-5.11-4.94-1.12-1.07-.47-.46a3.88,3.88,0,0,1-1.28-3.42l.48.46c.11.11.22.22.32.34h0l0,.11s0,.08,0,.11.06.2.1.3l0,.09a4.56,4.56,0,0,0,.3.58l.09.15.18.25.07.09.08.09h0c.1.12.21.24.32.35l.48.46.57.55.54.52,5.12,4.94a2.91,2.91,0,0,0,1.92.92h.29Z"/>
    <path class="cls-10" d="M261.47,47.68a2.42,2.42,0,0,1-.81.89l-.07,0-.74.47h0a2.63,2.63,0,0,0,.38-.3,2.45,2.45,0,0,0,.43-.56.16.16,0,0,0,0-.07A4,4,0,0,0,261,45.5,4.83,4.83,0,0,0,259.71,43l-8-7.77a2.7,2.7,0,0,0-2.81-.78,2.5,2.5,0,0,1,3.58.29l8.05,7.77A4.77,4.77,0,0,1,261.82,45,4,4,0,0,1,261.47,47.68Z"/>
    <path class="cls-9" d="M252.23,51.37V52.7c0,1.57-2.12,2.85-4.73,2.85s-4.73-1.28-4.73-2.85V51.37a1.74,1.74,0,0,0,.13.67c.49,1.25,2.36,2.18,4.6,2.18s4.1-.93,4.6-2.18A2,2,0,0,0,252.23,51.37Z"/>
    <path class="cls-5" d="M252.23,51.37a2,2,0,0,1-.13.67c-.5,1.25-2.37,2.18-4.6,2.18s-4.11-.93-4.6-2.18a1.74,1.74,0,0,1-.13-.67c0-1.57,2.11-2.84,4.73-2.84S252.23,49.8,252.23,51.37Z"/>
    <path class="cls-9" d="M250.89,50.18v1a1.15,1.15,0,0,1,0,.19c-.16,1-1.61,1.85-3.38,1.85s-3.23-.81-3.38-1.85a1.11,1.11,0,0,1,0-.19v-1a1.12,1.12,0,0,0,.1.48,1.42,1.42,0,0,0,.08.18,4.44,4.44,0,0,0,6.43,0l.09-.18A1.28,1.28,0,0,0,250.89,50.18Z"/>
    <path class="cls-5" d="M250.89,50.18a1.32,1.32,0,0,1-.09.48c-.36.9-1.7,1.56-3.3,1.56s-2.95-.66-3.3-1.56a1.33,1.33,0,0,1-.1-.48c0-1.13,1.52-2,3.4-2S250.89,49.05,250.89,50.18Z"/>
    <path class="cls-5" d="M246.1,54.76c0,.17-.07.31-.16.31s-.16-.14-.16-.31.07-.32.16-.32S246.1,54.58,246.1,54.76Z"/>
    <path class="cls-5" d="M247.68,54.92c0,.18-.1.32-.22.32s-.22-.14-.22-.32.1-.31.22-.31S247.68,54.75,247.68,54.92Z"/>
    <path class="cls-5" d="M249.22,54.77c0,.17-.09.31-.19.31s-.2-.14-.2-.31.09-.32.2-.32S249.22,54.59,249.22,54.77Z"/>
    <path class="cls-19" d="M250.89,51.5a1.36,1.36,0,0,1-.09.48c-.36.89-1.7,1.56-3.3,1.56s-2.95-.67-3.3-1.56a1.18,1.18,0,0,1-.1-.48,1.1,1.1,0,0,1,0-.18c.15,1,1.6,1.85,3.38,1.85s3.22-.81,3.38-1.85A1.09,1.09,0,0,1,250.89,51.5Z"/>
    <g class="cls-20">
      <path class="cls-21" d="M244.19,50.56s-.09,1.67,3.39,1.74c2.8.06,3.3-1.33,3.3-1.33l1.35-3.9-9.91-4.82Z"/>
    </g>
    <path class="cls-22" d="M227.88,42.8a2.62,2.62,0,0,1,.1.46,5.83,5.83,0,0,1,0,.62l1.27.22.46-.78s0-.76-.05-1.07-.42-.27-.42-.27Z"/>
    <path class="cls-23" d="M228.92,42.4a3.94,3.94,0,0,1-1.87.49,6,6,0,0,1,0-1.53,4.6,4.6,0,0,1,.43-1.12h0a4,4,0,0,0,.4.43,4.72,4.72,0,0,0,.55.47.22.22,0,0,1,0,.08c0,.2-.11.39-.09.58a.58.58,0,0,0,.13.31s.07-.79.38-.64S228.66,42.26,228.92,42.4Z"/>
    <path class="cls-24" d="M227.88,40.68a.59.59,0,0,1-.4-.43A4,4,0,0,0,227.88,40.68Z"/>
    <path class="cls-24" d="M230,41.87c-.32.48-.88.66-1.11.53s.24-.77-.06-.92-.38.64-.38.64a.58.58,0,0,1-.13-.31c0-.19.09-.38.09-.58a.22.22,0,0,0,0-.08,5,5,0,0,0,1.1.65l.05,0A.74.74,0,0,0,230,41.87Z"/>
    <path class="cls-11" d="M230,41.87a.74.74,0,0,1-.45,0l-.05,0a5,5,0,0,1-1.1-.65,4.72,4.72,0,0,1-.55-.47,4,4,0,0,1-.4-.43h0a2.8,2.8,0,0,1,.67-.61h0a1.39,1.39,0,0,1,1.28-.19h0a1,1,0,0,1,.21.1l.1.07C230.39,40.12,230.66,41.68,230,41.87Z"/>
    <path class="cls-25" d="M228.15,39.63h0a2.8,2.8,0,0,0-.67.61h0s-1.09-.71-.95-.84A6.45,6.45,0,0,1,228.15,39.63Z"/>
    <path class="cls-23" d="M229.74,39.61l-.1-.07a1,1,0,0,0-.21-.1h0s.11-.17.25-.08S229.74,39.61,229.74,39.61Z"/>
    <path class="cls-11" d="M232.66,50.49a2.59,2.59,0,0,1-.39.58,2.74,2.74,0,0,1-1.61.91,3.43,3.43,0,0,1-.86,0h0a7.15,7.15,0,0,0-2.6.26,4.48,4.48,0,0,0-.46.16s-.09-1.42-.1-2.73c.67-.33.55-1.59.55-1.59a14.15,14.15,0,0,0,1-2.07c.44-1.19-.48-1.44-.48-1.44a.88.88,0,0,0-.68.07l0-.05a4.47,4.47,0,0,1,1.65-1.08,2.37,2.37,0,0,1,1.23-.2,2.2,2.2,0,0,1,.52.13h0a1.67,1.67,0,0,1,1,1.15,17.79,17.79,0,0,1,.34,3,5.17,5.17,0,0,0,.11.54A12.74,12.74,0,0,0,232.66,50.49Z"/>
    <path class="cls-15" d="M231.7,47.64a17.79,17.79,0,0,0-.34-3,1.67,1.67,0,0,0-1-1.15,1.62,1.62,0,0,1,1.21,1C232,45.46,232.81,47.23,231.7,47.64Z"/>
    <path class="cls-11" d="M228.12,46a14.15,14.15,0,0,1-1,2.07h0a4.4,4.4,0,0,1-.53.74,1.56,1.56,0,0,1-.46.35.62.62,0,0,1-.64-.06.72.72,0,0,1-.27-.6,3.76,3.76,0,0,1,.18-1.2c0-.12.07-.24.12-.36a12.32,12.32,0,0,1,.55-1.32,2,2,0,0,1,.84-1,.88.88,0,0,1,.68-.07S228.56,44.85,228.12,46Z"/>
    <path class="cls-11" d="M225.54,49.14a6.22,6.22,0,0,1-1.85-.73A19.67,19.67,0,0,1,221.84,47a2.14,2.14,0,0,1,.1-.3,1.79,1.79,0,0,1,.31-.5,1.68,1.68,0,0,1,.21-.18,1.28,1.28,0,0,1,.43-.2s1,.72,1.76,1.18h0c.06.05.54.47.5.77a1.09,1.09,0,0,0,.11.79A.72.72,0,0,0,225.54,49.14Z"/>
    <path class="cls-23" d="M222.46,46a1.68,1.68,0,0,0-.21.18,1.79,1.79,0,0,0-.31.5.52.52,0,0,0-.21-.11c-.19,0-.75-.18-.37-.86.14-.24-.82-1-.72-1a7.41,7.41,0,0,1,1.38.79l.2.16.06.06h0C222.41,45.88,222.36,45.91,222.46,46Z"/>
    <path class="cls-22" d="M222.28,45.74l-.06-.06-.2-.16s-.08-.2,0-.22S222.26,45.69,222.28,45.74Z"/>
    <path class="cls-15" d="M226.62,49.7c0-.29,0-.59,0-.85a4.4,4.4,0,0,0,.53-.74h0S227.29,49.37,226.62,49.7Z"/>
    <path class="cls-15" d="M225.45,47.34a3.76,3.76,0,0,0-.18,1.2,1.09,1.09,0,0,1-.11-.79c0-.3-.44-.72-.5-.77A2.69,2.69,0,0,0,225.45,47.34Z"/>
    <path class="cls-9" d="M229,55.84c-.27.72,0,3.87.25,6,0,.36.07.69.11,1,.07.68.13,1.11.13,1.11a2,2,0,0,1-.48.18h0a1.93,1.93,0,0,1-1,0,1.13,1.13,0,0,1-.86-.64.39.39,0,0,1,0-.12s-.6-5.52-.63-7.33a10.78,10.78,0,0,1,.44-2.89c.15-.55.28-.9.28-.9a6.9,6.9,0,0,1,1.75-.28,8.23,8.23,0,0,1,.85,0h.38a3.85,3.85,0,0,0,.5-.05,9,9,0,0,1-.86,2.11A16.72,16.72,0,0,0,229,55.84Z"/>
    <path class="cls-11" d="M229.07,65.26c-.49.19-3.71-1.24-3.45-1.56s1-.22,1.5-.19a1.13,1.13,0,0,0,.86.64,1.93,1.93,0,0,0,1,0h0S229.55,65.06,229.07,65.26Z"/>
    <path class="cls-9" d="M232.17,52.65c-.23.68-.06,9.7-.06,9.7a3.89,3.89,0,0,1-.45.15h0a3,3,0,0,1-.81.13,2.61,2.61,0,0,1-1-.3V54.51A6.35,6.35,0,0,0,231,51.89a2.71,2.71,0,0,0,1.26-.82A3.84,3.84,0,0,1,232.17,52.65Z"/>
    <path class="cls-11" d="M231.74,63.62a5.69,5.69,0,0,1-2.41-.78c0-.29-.08-.62-.11-1h.58v.46a2.61,2.61,0,0,0,1,.3,3,3,0,0,0,.81-.13h0S232.22,63.43,231.74,63.62Z"/>
    <path class="cls-24" d="M231,51.89a6.35,6.35,0,0,1-1.21,2.62v-.42a9,9,0,0,0,.86-2.11A2,2,0,0,0,231,51.89Z"/>
    <polygon class="cls-26" points="211.4 69.16 211.4 72.3 209.59 71.26 208.67 67.59 211.4 69.16"/>
    <polygon class="cls-27" points="214.13 67.58 213.22 71.26 211.4 72.3 211.4 69.16 214.13 67.58"/>
    <polygon class="cls-9" points="208.67 67.59 211.4 66.02 214.13 67.58 211.4 69.16 208.67 67.59"/>
    <path class="cls-9" d="M211.93,67.78a2.62,2.62,0,0,1,.28-2.21c.7-1,1.15-1,1.24-1.65.17-1-.37-1.32-.3-1.91.11-.87,1-.55,1-1.58-.07-.83.43-2.33-1.05-1.55s-1.68,2.7-1.88,4.64a20.3,20.3,0,0,0,.12,4.26Z"/>
    <path class="cls-11" d="M210.67,67.78a2.4,2.4,0,0,0-.25-2c-.63-.89-1-1-1.13-1.5-.15-.94.33-1.2.27-1.73-.09-.8-.95-.51-.87-1.45.06-.75-.39-2.12,1-1.41,1.2.64,1.52,2.46,1.71,4.23a18.14,18.14,0,0,1-.12,3.87Z"/>
    <path class="cls-28" d="M211.58,67.8a0,0,0,0,1,0,0,5.64,5.64,0,0,1-.16-1.13,5.91,5.91,0,0,1,.91-2.79,1.62,1.62,0,0,0,.12-1.51,4,4,0,0,1-.12-.9,2,2,0,0,1,.62-1.38h0a0,0,0,0,1,0,0,2.07,2.07,0,0,0-.61,1.35,4.55,4.55,0,0,0,.13.89,1.71,1.71,0,0,1-.13,1.55,5.77,5.77,0,0,0-.91,2.76,5.62,5.62,0,0,0,.16,1.12,0,0,0,0,1,0,0Z"/>
    <path class="cls-28" d="M211,67.8h0s0,0,0,0a10.58,10.58,0,0,0-.07-2.58,3.26,3.26,0,0,0-.18-.39,2.55,2.55,0,0,1-.38-1.77,1.62,1.62,0,0,0-.43-1.3,1.12,1.12,0,0,1-.31-.6,2.17,2.17,0,0,0-.53-1.13,0,0,0,0,1,0,0h0a2.06,2.06,0,0,1,.55,1.16,1.21,1.21,0,0,0,.29.58,1.62,1.62,0,0,1,.44,1.33,2.6,2.6,0,0,0,.38,1.74c.07.14.14.27.19.39a10.71,10.71,0,0,1,.07,2.6A0,0,0,0,1,211,67.8Z"/>
    <polygon class="cls-26" points="242.77 60 242.77 63.14 240.95 62.09 240.04 58.43 242.77 60"/>
    <polygon class="cls-27" points="245.49 58.42 244.58 62.09 242.77 63.14 242.77 60 245.49 58.42"/>
    <polygon class="cls-9" points="240.04 58.43 242.77 56.85 245.49 58.42 242.77 60 240.04 58.43"/>
    <path class="cls-13" d="M243.3,58.61a2.62,2.62,0,0,1,.27-2.2c.7-1,1.15-1.06,1.25-1.65.17-1-.37-1.32-.3-1.91.1-.87,1-.55,1-1.59-.07-.82.42-2.33-1.06-1.55-1.32.7-1.67,2.71-1.88,4.65a20.61,20.61,0,0,0,.13,4.25Z"/>
    <path class="cls-11" d="M242,58.61a2.38,2.38,0,0,0-.25-2c-.64-.89-1-1-1.14-1.5-.15-.94.34-1.2.28-1.74-.1-.79-1-.5-.88-1.44.07-.75-.38-2.12,1-1.41s1.53,2.46,1.71,4.22a18.43,18.43,0,0,1-.11,3.87Z"/>
    <path class="cls-28" d="M243,58.64l0,0a6,6,0,0,1-.16-1.13,5.76,5.76,0,0,1,.92-2.79c.36-.42.24-1,.12-1.52a3.91,3.91,0,0,1-.13-.89,2,2,0,0,1,.63-1.39h0a0,0,0,0,1,0,0,1.94,1.94,0,0,0-.61,1.35,3.8,3.8,0,0,0,.12.88,1.69,1.69,0,0,1-.13,1.56,5.75,5.75,0,0,0-.9,2.76,5.78,5.78,0,0,0,.16,1.12l0,0Z"/>
    <path class="cls-28" d="M242.35,58.64h0s0,0,0,0a11.11,11.11,0,0,0-.07-2.58l-.18-.38a2.65,2.65,0,0,1-.39-1.78,1.53,1.53,0,0,0-.43-1.29,1.17,1.17,0,0,1-.3-.6,2.12,2.12,0,0,0-.54-1.14,0,0,0,0,1,0,0s0,0,0,0A2.22,2.22,0,0,1,241,52a1.13,1.13,0,0,0,.3.57,1.58,1.58,0,0,1,.43,1.33,2.56,2.56,0,0,0,.39,1.75,3.26,3.26,0,0,1,.18.39,10.7,10.7,0,0,1,.07,2.6A0,0,0,0,1,242.35,58.64Z"/>
  </g>
  <path class="cls-29" d="M0,25.14A16.14,16.14,0,0,0,19.63,0H0Z"/>
  <path class="cls-29" d="M41.17,95H-1V70.92c10-5.77,21.07-7.44,25.42.37C32.78,86.28,39.5,88.25,41.17,95Z"/>
  <path class="cls-30" d="M253.47,0H300V26.57c-11.08,6.37-23.25,8.21-28.05-.4C262.73,9.63,255.31,7.45,253.47,0Z"/>
</svg>
