<svg xmlns="http://www.w3.org/2000/svg" xmlns:xlink="http://www.w3.org/1999/xlink" viewBox="0 0 300 95">
  <defs>
    <style>
      .cls-1 {
        mask: url(#mask);
        filter: url(#luminosity-noclip-2);
      }

      .cls-2 {
        mix-blend-mode: multiply;
        fill: url(#linear-gradient);
      }

      .cls-3 {
        isolation: isolate;
      }

      .cls-4 {
        fill: url(#linear-gradient-2);
      }

      .cls-5, .cls-56, .cls-60 {
        opacity: 0.5;
      }

      .cls-5 {
        mix-blend-mode: soft-light;
      }

      .cls-6 {
        fill: #fefefe;
      }

      .cls-7 {
        fill: #b7bad2;
      }

      .cls-8 {
        fill: #443a5c;
      }

      .cls-9 {
        fill: #a458c7;
      }

      .cls-10 {
        fill: #efeff4;
      }

      .cls-11 {
        fill: #d3d4e3;
      }

      .cls-12 {
        fill: #c0c2d1;
      }

      .cls-13 {
        fill: #5f546f;
      }

      .cls-14, .cls-60 {
        fill: #fff;
      }

      .cls-15 {
        fill: #c478e6;
      }

      .cls-16 {
        fill: #fcbb51;
      }

      .cls-17 {
        fill: #9093ef;
      }

      .cls-18 {
        fill: #8385d9;
      }

      .cls-19 {
        fill: #a5a6bc;
      }

      .cls-20 {
        fill: #8887fc;
      }

      .cls-21 {
        fill: #b6b9d1;
      }

      .cls-22 {
        fill: #d6dce3;
      }

      .cls-23 {
        fill: #313551;
      }

      .cls-24 {
        fill: #5e6aa5;
      }

      .cls-25 {
        fill: #e6b0ff;
        opacity: 0.8;
      }

      .cls-26 {
        fill: url(#linear-gradient-3);
      }

      .cls-27 {
        fill: #4d4468;
      }

      .cls-28 {
        fill: url(#linear-gradient-4);
      }

      .cls-29 {
        fill: url(#linear-gradient-5);
      }

      .cls-30 {
        fill: #e5b5b1;
      }

      .cls-31 {
        fill: #e2e6eb;
      }

      .cls-32 {
        fill: #cfcfda;
      }

      .cls-33 {
        fill: #757dd8;
      }

      .cls-34 {
        fill: #ffcd5e;
      }

      .cls-35 {
        mask: url(#mask-2);
      }

      .cls-36 {
        fill: url(#linear-gradient-6);
      }

      .cls-37 {
        fill: #d2d1fc;
      }

      .cls-38 {
        fill: #e29e9a;
      }

      .cls-39 {
        fill: #ce9795;
      }

      .cls-40 {
        fill: #e3e3e8;
      }

      .cls-41 {
        fill: #8499f0;
      }

      .cls-42 {
        fill: #566edb;
      }

      .cls-43 {
        fill: #f9c4aa;
      }

      .cls-44 {
        fill: #f4b840;
      }

      .cls-45 {
        fill: #d7d7e0;
      }

      .cls-46 {
        fill: #382130;
      }

      .cls-47 {
        fill: #433a59;
      }

      .cls-48 {
        fill: #eda48a;
      }

      .cls-49 {
        fill: #b73450;
      }

      .cls-50 {
        fill: #b77983;
      }

      .cls-51 {
        fill: #3d220c;
      }

      .cls-52 {
        fill: #dfe4ea;
      }

      .cls-53 {
        fill: #e297a3;
      }

      .cls-54 {
        fill: #f4b49a;
      }

      .cls-55 {
        fill: #c7ccd1;
      }

      .cls-57 {
        fill: #f9486e;
      }

      .cls-58 {
        fill: url(#linear-gradient-7);
      }

      .cls-59 {
        fill: url(#linear-gradient-8);
      }

      .cls-61 {
        fill: url(#linear-gradient-9);
      }

      .cls-62 {
        fill: url(#linear-gradient-10);
      }

      .cls-63 {
        filter: url(#luminosity-noclip);
      }
    </style>
    <filter id="luminosity-noclip" x="237.06" y="-8107" width="14.17" height="32766" filterUnits="userSpaceOnUse" color-interpolation-filters="sRGB">
      <feFlood flood-color="#fff" result="bg"/>
      <feBlend in="SourceGraphic" in2="bg"/>
    </filter>
    <mask id="mask" x="237.06" y="-8107" width="14.17" height="32766" maskUnits="userSpaceOnUse">
      <g class="cls-63"/>
    </mask>
    <linearGradient id="linear-gradient" x1="237.06" y1="37.31" x2="251.24" y2="37.31" gradientUnits="userSpaceOnUse">
      <stop offset="0" stop-color="#1a1a1a"/>
      <stop offset="0.49" stop-color="#898989"/>
      <stop offset="1" stop-color="#fff"/>
    </linearGradient>
    <linearGradient id="linear-gradient-2" x1="-0.5" y1="47.5" x2="300.5" y2="47.5" gradientUnits="userSpaceOnUse">
      <stop offset="0" stop-color="#7b67f4"/>
      <stop offset="1" stop-color="#ffcd5e"/>
    </linearGradient>
    <linearGradient id="linear-gradient-3" x1="224.96" y1="33.14" x2="226.64" y2="33.14" gradientUnits="userSpaceOnUse">
      <stop offset="0" stop-color="#4f2c89"/>
      <stop offset="1" stop-color="#3f2267"/>
    </linearGradient>
    <linearGradient id="linear-gradient-4" x1="228.59" y1="35.5" x2="231.54" y2="35.5" xlink:href="#linear-gradient-3"/>
    <linearGradient id="linear-gradient-5" x1="222.81" y1="34.94" x2="225.62" y2="34.94" xlink:href="#linear-gradient-3"/>
    <filter id="luminosity-noclip-2" x="237.06" y="26.75" width="14.17" height="21.11" filterUnits="userSpaceOnUse" color-interpolation-filters="sRGB">
      <feFlood flood-color="#fff" result="bg"/>
      <feBlend in="SourceGraphic" in2="bg"/>
    </filter>
    <mask id="mask-2" x="237.06" y="26.75" width="14.17" height="21.11" maskUnits="userSpaceOnUse">
      <g class="cls-1">
        <path class="cls-2" d="M237.07,27.43V39a1.85,1.85,0,0,0,.78,1.47l12.62,7.29c.43.25.78,0,.78-.58V35.61a1.82,1.82,0,0,0-.78-1.47l-12.62-7.29C237.41,26.6,237.07,26.86,237.07,27.43Z"/>
      </g>
    </mask>
    <linearGradient id="linear-gradient-6" x1="237.06" y1="37.31" x2="251.24" y2="37.31" gradientUnits="userSpaceOnUse">
      <stop offset="0" stop-color="#ab77fe"/>
      <stop offset="1" stop-color="#77a0fe"/>
    </linearGradient>
    <linearGradient id="linear-gradient-7" x1="0.12" y1="-130.34" x2="0.83" y2="-130.34" gradientTransform="matrix(6.76, 0, 0, -6.76, 18.2, -854.21)" gradientUnits="userSpaceOnUse">
      <stop offset="0" stop-color="#c478e6"/>
      <stop offset="0.01" stop-color="#c478e6"/>
      <stop offset="1" stop-color="#ffcd5e"/>
    </linearGradient>
    <linearGradient id="linear-gradient-8" x1="0.04" y1="-134" x2="0.75" y2="-134" gradientTransform="matrix(-2.85, 6.75, 6.75, 2.85, 957.73, 394.78)" xlink:href="#linear-gradient-7"/>
    <linearGradient id="linear-gradient-9" x1="0.12" y1="-130.47" x2="0.83" y2="-130.47" gradientTransform="matrix(6.76, 0, 0, -6.76, 18.2, -854.21)" gradientUnits="userSpaceOnUse">
      <stop offset="0" stop-color="#d39aec"/>
      <stop offset="0.01" stop-color="#d39aec"/>
      <stop offset="1" stop-color="#ffd986"/>
    </linearGradient>
    <linearGradient id="linear-gradient-10" x1="0.04" y1="-134.16" x2="0.75" y2="-134.16" gradientTransform="matrix(-2.85, 6.75, 6.75, 2.85, 957.73, 394.78)" xlink:href="#linear-gradient-9"/>
  </defs>
  <g class="cls-3">
    <g id="Layer_1" data-name="Layer 1">
      <rect class="cls-4" x="-0.5" y="-0.5" width="301" height="96"/>
      <g class="cls-5">
        <g>
          <g>
            <g>
              <path class="cls-6" d="M168.89,31a.5.5,0,1,1-1,0,.5.5,0,0,1,1,0Z"/>
              <path class="cls-6" d="M172.16,31a.51.51,0,1,1-.51-.5A.51.51,0,0,1,172.16,31Z"/>
              <path class="cls-6" d="M175.42,31a.5.5,0,1,1-1,0,.5.5,0,0,1,1,0Z"/>
              <path class="cls-6" d="M178.68,31a.5.5,0,1,1-1,0,.5.5,0,0,1,1,0Z"/>
              <path class="cls-6" d="M182,31a.51.51,0,0,1-1,0,.51.51,0,0,1,1,0Z"/>
              <path class="cls-6" d="M185.21,31a.5.5,0,1,1-1,0,.5.5,0,0,1,1,0Z"/>
              <path class="cls-6" d="M188.48,31a.51.51,0,1,1-.51-.5A.51.51,0,0,1,188.48,31Z"/>
              <path class="cls-6" d="M191.74,31a.5.5,0,1,1-1,0,.5.5,0,0,1,1,0Z"/>
            </g>
            <g>
              <path class="cls-6" d="M168.89,34.58a.5.5,0,1,1-.5-.5A.5.5,0,0,1,168.89,34.58Z"/>
              <path class="cls-6" d="M172.16,34.58a.51.51,0,1,1-.51-.5A.51.51,0,0,1,172.16,34.58Z"/>
              <path class="cls-6" d="M175.42,34.58a.5.5,0,1,1-.5-.5A.5.5,0,0,1,175.42,34.58Z"/>
              <path class="cls-6" d="M178.68,34.58a.5.5,0,1,1-.5-.5A.5.5,0,0,1,178.68,34.58Z"/>
              <path class="cls-6" d="M182,34.58a.51.51,0,1,1-.5-.5A.51.51,0,0,1,182,34.58Z"/>
              <path class="cls-6" d="M185.21,34.58a.5.5,0,1,1-.5-.5A.5.5,0,0,1,185.21,34.58Z"/>
              <path class="cls-6" d="M188.48,34.58a.51.51,0,1,1-.51-.5A.51.51,0,0,1,188.48,34.58Z"/>
              <path class="cls-6" d="M191.74,34.58a.5.5,0,1,1-.5-.5A.5.5,0,0,1,191.74,34.58Z"/>
            </g>
            <g>
              <circle class="cls-6" cx="168.39" cy="38.15" r="0.5"/>
              <circle class="cls-6" cx="171.65" cy="38.15" r="0.5"/>
              <circle class="cls-6" cx="174.92" cy="38.15" r="0.5"/>
              <circle class="cls-6" cx="178.18" cy="38.15" r="0.5"/>
              <path class="cls-6" d="M182,38.15a.51.51,0,1,1-.5-.51A.51.51,0,0,1,182,38.15Z"/>
              <path class="cls-6" d="M185.21,38.15a.5.5,0,1,1-.5-.51A.5.5,0,0,1,185.21,38.15Z"/>
              <path class="cls-6" d="M188.48,38.15a.51.51,0,1,1-.51-.51A.51.51,0,0,1,188.48,38.15Z"/>
              <path class="cls-6" d="M191.74,38.15a.5.5,0,1,1-.5-.51A.5.5,0,0,1,191.74,38.15Z"/>
            </g>
            <g>
              <circle class="cls-6" cx="168.39" cy="41.71" r="0.5"/>
              <circle class="cls-6" cx="171.65" cy="41.71" r="0.5"/>
              <circle class="cls-6" cx="174.92" cy="41.71" r="0.5"/>
              <circle class="cls-6" cx="178.18" cy="41.71" r="0.5"/>
              <path class="cls-6" d="M182,41.71a.51.51,0,1,1-.5-.5A.5.5,0,0,1,182,41.71Z"/>
              <path class="cls-6" d="M185.21,41.71a.5.5,0,1,1-.5-.5A.5.5,0,0,1,185.21,41.71Z"/>
              <path class="cls-6" d="M188.48,41.71a.51.51,0,1,1-.51-.5A.5.5,0,0,1,188.48,41.71Z"/>
              <path class="cls-6" d="M191.74,41.71a.5.5,0,1,1-.5-.5A.5.5,0,0,1,191.74,41.71Z"/>
            </g>
            <g>
              <circle class="cls-6" cx="168.39" cy="45.27" r="0.5"/>
              <circle class="cls-6" cx="171.65" cy="45.27" r="0.5"/>
              <circle class="cls-6" cx="174.92" cy="45.27" r="0.5"/>
              <circle class="cls-6" cx="178.18" cy="45.27" r="0.5"/>
              <path class="cls-6" d="M182,45.27a.51.51,0,1,1-.5-.5A.5.5,0,0,1,182,45.27Z"/>
              <path class="cls-6" d="M185.21,45.27a.5.5,0,1,1-.5-.5A.5.5,0,0,1,185.21,45.27Z"/>
              <path class="cls-6" d="M188.48,45.27a.51.51,0,1,1-.51-.5A.5.5,0,0,1,188.48,45.27Z"/>
              <path class="cls-6" d="M191.74,45.27a.5.5,0,1,1-.5-.5A.5.5,0,0,1,191.74,45.27Z"/>
            </g>
            <g>
              <circle class="cls-6" cx="168.39" cy="48.83" r="0.5"/>
              <circle class="cls-6" cx="171.65" cy="48.83" r="0.5"/>
              <circle class="cls-6" cx="174.92" cy="48.83" r="0.5"/>
              <circle class="cls-6" cx="178.18" cy="48.83" r="0.5"/>
              <path class="cls-6" d="M182,48.83a.51.51,0,0,1-1,0,.51.51,0,0,1,1,0Z"/>
              <path class="cls-6" d="M185.21,48.83a.5.5,0,1,1-1,0,.5.5,0,0,1,1,0Z"/>
              <path class="cls-6" d="M188.48,48.83a.51.51,0,1,1-.51-.5A.51.51,0,0,1,188.48,48.83Z"/>
              <path class="cls-6" d="M191.74,48.83a.5.5,0,0,1-1,0,.5.5,0,1,1,1,0Z"/>
            </g>
            <g>
              <path class="cls-6" d="M168.89,52.39a.5.5,0,1,1-.5-.5A.5.5,0,0,1,168.89,52.39Z"/>
              <path class="cls-6" d="M172.16,52.39a.51.51,0,1,1-.51-.5A.51.51,0,0,1,172.16,52.39Z"/>
              <path class="cls-6" d="M175.42,52.39a.5.5,0,1,1-.5-.5A.5.5,0,0,1,175.42,52.39Z"/>
              <path class="cls-6" d="M178.68,52.39a.5.5,0,1,1-.5-.5A.5.5,0,0,1,178.68,52.39Z"/>
              <path class="cls-6" d="M182,52.39a.51.51,0,1,1-.5-.5A.51.51,0,0,1,182,52.39Z"/>
              <path class="cls-6" d="M185.21,52.39a.5.5,0,1,1-.5-.5A.5.5,0,0,1,185.21,52.39Z"/>
              <path class="cls-6" d="M188.48,52.39a.51.51,0,1,1-.51-.5A.51.51,0,0,1,188.48,52.39Z"/>
              <path class="cls-6" d="M191.74,52.39a.5.5,0,1,1-.5-.5A.5.5,0,0,1,191.74,52.39Z"/>
            </g>
          </g>
          <g>
            <g>
              <path class="cls-6" d="M195.15,31a.5.5,0,1,1-1,0,.5.5,0,0,1,1,0Z"/>
              <path class="cls-6" d="M198.42,31a.51.51,0,1,1-.51-.5A.51.51,0,0,1,198.42,31Z"/>
              <path class="cls-6" d="M201.68,31a.5.5,0,1,1-1,0,.5.5,0,0,1,1,0Z"/>
              <path class="cls-6" d="M204.94,31a.5.5,0,1,1-1,0,.5.5,0,0,1,1,0Z"/>
              <path class="cls-6" d="M208.21,31a.51.51,0,0,1-1,0,.51.51,0,0,1,1,0Z"/>
              <path class="cls-6" d="M211.47,31a.5.5,0,1,1-1,0,.5.5,0,0,1,1,0Z"/>
              <path class="cls-6" d="M214.74,31a.51.51,0,1,1-.51-.5A.51.51,0,0,1,214.74,31Z"/>
              <path class="cls-6" d="M218,31a.5.5,0,1,1-1,0,.5.5,0,0,1,1,0Z"/>
            </g>
            <g>
              <path class="cls-6" d="M195.15,34.58a.5.5,0,1,1-.5-.5A.5.5,0,0,1,195.15,34.58Z"/>
              <path class="cls-6" d="M198.42,34.58a.51.51,0,1,1-.51-.5A.51.51,0,0,1,198.42,34.58Z"/>
              <path class="cls-6" d="M201.68,34.58a.5.5,0,1,1-.5-.5A.5.5,0,0,1,201.68,34.58Z"/>
              <path class="cls-6" d="M204.94,34.58a.5.5,0,1,1-.5-.5A.5.5,0,0,1,204.94,34.58Z"/>
              <path class="cls-6" d="M208.21,34.58a.51.51,0,1,1-.5-.5A.51.51,0,0,1,208.21,34.58Z"/>
              <path class="cls-6" d="M211.47,34.58a.5.5,0,1,1-.5-.5A.5.5,0,0,1,211.47,34.58Z"/>
              <path class="cls-6" d="M214.74,34.58a.51.51,0,1,1-.51-.5A.51.51,0,0,1,214.74,34.58Z"/>
              <path class="cls-6" d="M218,34.58a.5.5,0,1,1-.5-.5A.5.5,0,0,1,218,34.58Z"/>
            </g>
            <g>
              <circle class="cls-6" cx="194.65" cy="38.15" r="0.5"/>
              <circle class="cls-6" cx="197.91" cy="38.15" r="0.5"/>
              <path class="cls-6" d="M201.68,38.15a.5.5,0,1,1-.5-.51A.5.5,0,0,1,201.68,38.15Z"/>
              <circle class="cls-6" cx="204.44" cy="38.15" r="0.5"/>
              <path class="cls-6" d="M208.21,38.15a.51.51,0,1,1-.5-.51A.51.51,0,0,1,208.21,38.15Z"/>
              <circle class="cls-6" cx="210.97" cy="38.15" r="0.5"/>
              <circle class="cls-6" cx="214.23" cy="38.15" r="0.5"/>
              <circle class="cls-6" cx="217.5" cy="38.15" r="0.5"/>
            </g>
            <g>
              <circle class="cls-6" cx="194.65" cy="41.71" r="0.5"/>
              <circle class="cls-6" cx="197.91" cy="41.71" r="0.5"/>
              <path class="cls-6" d="M201.68,41.71a.5.5,0,1,1-.5-.5A.5.5,0,0,1,201.68,41.71Z"/>
              <circle class="cls-6" cx="204.44" cy="41.71" r="0.5"/>
              <path class="cls-6" d="M208.21,41.71a.51.51,0,1,1-.5-.5A.5.5,0,0,1,208.21,41.71Z"/>
              <circle class="cls-6" cx="210.97" cy="41.71" r="0.5"/>
              <circle class="cls-6" cx="214.23" cy="41.71" r="0.5"/>
              <circle class="cls-6" cx="217.5" cy="41.71" r="0.5"/>
            </g>
            <g>
              <circle class="cls-6" cx="194.65" cy="45.27" r="0.5"/>
              <circle class="cls-6" cx="197.91" cy="45.27" r="0.5"/>
              <path class="cls-6" d="M201.68,45.27a.5.5,0,1,1-.5-.5A.5.5,0,0,1,201.68,45.27Z"/>
              <circle class="cls-6" cx="204.44" cy="45.27" r="0.5"/>
              <path class="cls-6" d="M208.21,45.27a.51.51,0,1,1-.5-.5A.5.5,0,0,1,208.21,45.27Z"/>
              <circle class="cls-6" cx="210.97" cy="45.27" r="0.5"/>
              <circle class="cls-6" cx="214.23" cy="45.27" r="0.5"/>
              <circle class="cls-6" cx="217.5" cy="45.27" r="0.5"/>
            </g>
            <g>
              <circle class="cls-6" cx="194.65" cy="48.83" r="0.5"/>
              <circle class="cls-6" cx="197.91" cy="48.83" r="0.5"/>
              <path class="cls-6" d="M201.68,48.83a.5.5,0,0,1-1,0,.5.5,0,1,1,1,0Z"/>
              <circle class="cls-6" cx="204.44" cy="48.83" r="0.5"/>
              <path class="cls-6" d="M208.21,48.83a.51.51,0,0,1-1,0,.51.51,0,0,1,1,0Z"/>
              <circle class="cls-6" cx="210.97" cy="48.83" r="0.5"/>
              <circle class="cls-6" cx="214.23" cy="48.83" r="0.5"/>
              <circle class="cls-6" cx="217.5" cy="48.83" r="0.5"/>
            </g>
            <g>
              <path class="cls-6" d="M195.15,52.39a.5.5,0,1,1-.5-.5A.5.5,0,0,1,195.15,52.39Z"/>
              <path class="cls-6" d="M198.42,52.39a.51.51,0,1,1-.51-.5A.51.51,0,0,1,198.42,52.39Z"/>
              <path class="cls-6" d="M201.68,52.39a.5.5,0,1,1-.5-.5A.5.5,0,0,1,201.68,52.39Z"/>
              <path class="cls-6" d="M204.94,52.39a.5.5,0,1,1-.5-.5A.5.5,0,0,1,204.94,52.39Z"/>
              <path class="cls-6" d="M208.21,52.39a.51.51,0,1,1-.5-.5A.51.51,0,0,1,208.21,52.39Z"/>
              <path class="cls-6" d="M211.47,52.39a.5.5,0,1,1-.5-.5A.5.5,0,0,1,211.47,52.39Z"/>
              <path class="cls-6" d="M214.74,52.39a.51.51,0,1,1-.51-.5A.51.51,0,0,1,214.74,52.39Z"/>
              <path class="cls-6" d="M218,52.39a.5.5,0,1,1-.5-.5A.5.5,0,0,1,218,52.39Z"/>
            </g>
          </g>
        </g>
        <g>
          <g>
            <g>
              <circle class="cls-6" cx="168.39" cy="6.55" r="0.5"/>
              <circle class="cls-6" cx="171.65" cy="6.55" r="0.5"/>
              <circle class="cls-6" cx="174.92" cy="6.55" r="0.5"/>
              <circle class="cls-6" cx="178.18" cy="6.55" r="0.5"/>
              <path class="cls-6" d="M182,6.55a.51.51,0,1,1-.5-.5A.5.5,0,0,1,182,6.55Z"/>
              <path class="cls-6" d="M185.21,6.55a.5.5,0,1,1-.5-.5A.5.5,0,0,1,185.21,6.55Z"/>
              <path class="cls-6" d="M188.48,6.55a.51.51,0,1,1-.51-.5A.5.5,0,0,1,188.48,6.55Z"/>
              <path class="cls-6" d="M191.74,6.55a.5.5,0,1,1-.5-.5A.5.5,0,0,1,191.74,6.55Z"/>
            </g>
            <g>
              <circle class="cls-6" cx="168.39" cy="10.11" r="0.5"/>
              <circle class="cls-6" cx="171.65" cy="10.11" r="0.5"/>
              <circle class="cls-6" cx="174.92" cy="10.11" r="0.5"/>
              <circle class="cls-6" cx="178.18" cy="10.11" r="0.5"/>
              <path class="cls-6" d="M182,10.11a.51.51,0,1,1-.5-.5A.5.5,0,0,1,182,10.11Z"/>
              <path class="cls-6" d="M185.21,10.11a.5.5,0,1,1-.5-.5A.5.5,0,0,1,185.21,10.11Z"/>
              <path class="cls-6" d="M188.48,10.11a.51.51,0,1,1-.51-.5A.5.5,0,0,1,188.48,10.11Z"/>
              <path class="cls-6" d="M191.74,10.11a.5.5,0,1,1-.5-.5A.5.5,0,0,1,191.74,10.11Z"/>
            </g>
            <g>
              <path class="cls-6" d="M168.89,13.67a.5.5,0,1,1-.5-.5A.5.5,0,0,1,168.89,13.67Z"/>
              <path class="cls-6" d="M172.16,13.67a.51.51,0,1,1-.51-.5A.51.51,0,0,1,172.16,13.67Z"/>
              <path class="cls-6" d="M175.42,13.67a.5.5,0,1,1-.5-.5A.5.5,0,0,1,175.42,13.67Z"/>
              <path class="cls-6" d="M178.68,13.67a.5.5,0,1,1-.5-.5A.5.5,0,0,1,178.68,13.67Z"/>
              <path class="cls-6" d="M182,13.67a.51.51,0,1,1-.5-.5A.51.51,0,0,1,182,13.67Z"/>
              <path class="cls-6" d="M185.21,13.67a.5.5,0,1,1-.5-.5A.5.5,0,0,1,185.21,13.67Z"/>
              <path class="cls-6" d="M188.48,13.67a.51.51,0,1,1-.51-.5A.51.51,0,0,1,188.48,13.67Z"/>
              <path class="cls-6" d="M191.74,13.67a.5.5,0,1,1-.5-.5A.5.5,0,0,1,191.74,13.67Z"/>
            </g>
            <g>
              <path class="cls-6" d="M168.89,17.24a.5.5,0,1,1-.5-.51A.5.5,0,0,1,168.89,17.24Z"/>
              <path class="cls-6" d="M172.16,17.24a.51.51,0,1,1-.51-.51A.51.51,0,0,1,172.16,17.24Z"/>
              <path class="cls-6" d="M175.42,17.24a.5.5,0,1,1-.5-.51A.5.5,0,0,1,175.42,17.24Z"/>
              <path class="cls-6" d="M178.68,17.24a.5.5,0,1,1-.5-.51A.5.5,0,0,1,178.68,17.24Z"/>
              <path class="cls-6" d="M182,17.24a.51.51,0,1,1-.5-.51A.51.51,0,0,1,182,17.24Z"/>
              <path class="cls-6" d="M185.21,17.24a.5.5,0,1,1-.5-.51A.5.5,0,0,1,185.21,17.24Z"/>
              <path class="cls-6" d="M188.48,17.24a.51.51,0,1,1-.51-.51A.51.51,0,0,1,188.48,17.24Z"/>
              <path class="cls-6" d="M191.74,17.24a.5.5,0,1,1-.5-.51A.5.5,0,0,1,191.74,17.24Z"/>
            </g>
            <g>
              <circle class="cls-6" cx="168.39" cy="20.8" r="0.5"/>
              <circle class="cls-6" cx="171.65" cy="20.8" r="0.5"/>
              <circle class="cls-6" cx="174.92" cy="20.8" r="0.5"/>
              <circle class="cls-6" cx="178.18" cy="20.8" r="0.5"/>
              <path class="cls-6" d="M182,20.8a.51.51,0,1,1-.5-.5A.5.5,0,0,1,182,20.8Z"/>
              <path class="cls-6" d="M185.21,20.8a.5.5,0,1,1-1,0,.5.5,0,0,1,1,0Z"/>
              <path class="cls-6" d="M188.48,20.8a.51.51,0,0,1-1,0,.51.51,0,0,1,1,0Z"/>
              <path class="cls-6" d="M191.74,20.8a.5.5,0,1,1-1,0,.5.5,0,0,1,1,0Z"/>
            </g>
            <g>
              <circle class="cls-6" cx="168.39" cy="24.36" r="0.5"/>
              <circle class="cls-6" cx="171.65" cy="24.36" r="0.5"/>
              <circle class="cls-6" cx="174.92" cy="24.36" r="0.5"/>
              <circle class="cls-6" cx="178.18" cy="24.36" r="0.5"/>
              <path class="cls-6" d="M182,24.36a.51.51,0,1,1-.5-.5A.5.5,0,0,1,182,24.36Z"/>
              <path class="cls-6" d="M185.21,24.36a.5.5,0,1,1-.5-.5A.5.5,0,0,1,185.21,24.36Z"/>
              <path class="cls-6" d="M188.48,24.36a.51.51,0,1,1-.51-.5A.5.5,0,0,1,188.48,24.36Z"/>
              <path class="cls-6" d="M191.74,24.36a.5.5,0,1,1-.5-.5A.5.5,0,0,1,191.74,24.36Z"/>
            </g>
            <g>
              <path class="cls-6" d="M168.89,27.92a.5.5,0,1,1-.5-.5A.5.5,0,0,1,168.89,27.92Z"/>
              <path class="cls-6" d="M172.16,27.92a.51.51,0,1,1-.51-.5A.5.5,0,0,1,172.16,27.92Z"/>
              <path class="cls-6" d="M175.42,27.92a.5.5,0,1,1-.5-.5A.5.5,0,0,1,175.42,27.92Z"/>
              <path class="cls-6" d="M178.68,27.92a.5.5,0,1,1-.5-.5A.5.5,0,0,1,178.68,27.92Z"/>
              <path class="cls-6" d="M182,27.92a.51.51,0,1,1-.5-.5A.5.5,0,0,1,182,27.92Z"/>
              <path class="cls-6" d="M185.21,27.92a.5.5,0,1,1-.5-.5A.5.5,0,0,1,185.21,27.92Z"/>
              <path class="cls-6" d="M188.48,27.92a.51.51,0,1,1-.51-.5A.5.5,0,0,1,188.48,27.92Z"/>
              <path class="cls-6" d="M191.74,27.92a.5.5,0,1,1-.5-.5A.5.5,0,0,1,191.74,27.92Z"/>
            </g>
          </g>
          <g>
            <g>
              <circle class="cls-6" cx="194.65" cy="6.55" r="0.5"/>
              <circle class="cls-6" cx="197.91" cy="6.55" r="0.5"/>
              <path class="cls-6" d="M201.68,6.55a.5.5,0,1,1-.5-.5A.5.5,0,0,1,201.68,6.55Z"/>
              <circle class="cls-6" cx="204.44" cy="6.55" r="0.5"/>
              <path class="cls-6" d="M208.21,6.55a.51.51,0,1,1-.5-.5A.5.5,0,0,1,208.21,6.55Z"/>
              <circle class="cls-6" cx="210.97" cy="6.55" r="0.5"/>
              <circle class="cls-6" cx="214.23" cy="6.55" r="0.5"/>
              <circle class="cls-6" cx="217.5" cy="6.55" r="0.5"/>
            </g>
            <g>
              <circle class="cls-6" cx="194.65" cy="10.11" r="0.5"/>
              <circle class="cls-6" cx="197.91" cy="10.11" r="0.5"/>
              <path class="cls-6" d="M201.68,10.11a.5.5,0,1,1-.5-.5A.5.5,0,0,1,201.68,10.11Z"/>
              <circle class="cls-6" cx="204.44" cy="10.11" r="0.5"/>
              <path class="cls-6" d="M208.21,10.11a.51.51,0,1,1-.5-.5A.5.5,0,0,1,208.21,10.11Z"/>
              <circle class="cls-6" cx="210.97" cy="10.11" r="0.5"/>
              <circle class="cls-6" cx="214.23" cy="10.11" r="0.5"/>
              <circle class="cls-6" cx="217.5" cy="10.11" r="0.5"/>
            </g>
            <g>
              <path class="cls-6" d="M195.15,13.67a.5.5,0,1,1-.5-.5A.5.5,0,0,1,195.15,13.67Z"/>
              <path class="cls-6" d="M198.42,13.67a.51.51,0,1,1-.51-.5A.51.51,0,0,1,198.42,13.67Z"/>
              <path class="cls-6" d="M201.68,13.67a.5.5,0,1,1-.5-.5A.5.5,0,0,1,201.68,13.67Z"/>
              <path class="cls-6" d="M204.94,13.67a.5.5,0,1,1-.5-.5A.5.5,0,0,1,204.94,13.67Z"/>
              <path class="cls-6" d="M208.21,13.67a.51.51,0,1,1-.5-.5A.51.51,0,0,1,208.21,13.67Z"/>
              <path class="cls-6" d="M211.47,13.67a.5.5,0,1,1-.5-.5A.5.5,0,0,1,211.47,13.67Z"/>
              <path class="cls-6" d="M214.74,13.67a.51.51,0,1,1-.51-.5A.51.51,0,0,1,214.74,13.67Z"/>
              <path class="cls-6" d="M218,13.67a.5.5,0,1,1-.5-.5A.5.5,0,0,1,218,13.67Z"/>
            </g>
            <g>
              <path class="cls-6" d="M195.15,17.24a.5.5,0,1,1-.5-.51A.5.5,0,0,1,195.15,17.24Z"/>
              <path class="cls-6" d="M198.42,17.24a.51.51,0,1,1-.51-.51A.51.51,0,0,1,198.42,17.24Z"/>
              <path class="cls-6" d="M201.68,17.24a.5.5,0,1,1-.5-.51A.5.5,0,0,1,201.68,17.24Z"/>
              <path class="cls-6" d="M204.94,17.24a.5.5,0,1,1-.5-.51A.5.5,0,0,1,204.94,17.24Z"/>
              <path class="cls-6" d="M208.21,17.24a.51.51,0,1,1-.5-.51A.51.51,0,0,1,208.21,17.24Z"/>
              <path class="cls-6" d="M211.47,17.24a.5.5,0,1,1-.5-.51A.5.5,0,0,1,211.47,17.24Z"/>
              <path class="cls-6" d="M214.74,17.24a.51.51,0,1,1-.51-.51A.51.51,0,0,1,214.74,17.24Z"/>
              <path class="cls-6" d="M218,17.24a.5.5,0,1,1-.5-.51A.5.5,0,0,1,218,17.24Z"/>
            </g>
            <g>
              <circle class="cls-6" cx="194.65" cy="20.8" r="0.5"/>
              <circle class="cls-6" cx="197.91" cy="20.8" r="0.5"/>
              <path class="cls-6" d="M201.68,20.8a.5.5,0,1,1-1,0,.5.5,0,0,1,1,0Z"/>
              <circle class="cls-6" cx="204.44" cy="20.8" r="0.5"/>
              <path class="cls-6" d="M208.21,20.8a.51.51,0,1,1-.5-.5A.5.5,0,0,1,208.21,20.8Z"/>
              <circle class="cls-6" cx="210.97" cy="20.8" r="0.5"/>
              <circle class="cls-6" cx="214.23" cy="20.8" r="0.5"/>
              <circle class="cls-6" cx="217.5" cy="20.8" r="0.5"/>
            </g>
            <g>
              <circle class="cls-6" cx="194.65" cy="24.36" r="0.5"/>
              <circle class="cls-6" cx="197.91" cy="24.36" r="0.5"/>
              <path class="cls-6" d="M201.68,24.36a.5.5,0,1,1-.5-.5A.5.5,0,0,1,201.68,24.36Z"/>
              <circle class="cls-6" cx="204.44" cy="24.36" r="0.5"/>
              <path class="cls-6" d="M208.21,24.36a.51.51,0,1,1-.5-.5A.5.5,0,0,1,208.21,24.36Z"/>
              <circle class="cls-6" cx="210.97" cy="24.36" r="0.5"/>
              <circle class="cls-6" cx="214.23" cy="24.36" r="0.5"/>
              <circle class="cls-6" cx="217.5" cy="24.36" r="0.5"/>
            </g>
            <g>
              <path class="cls-6" d="M195.15,27.92a.5.5,0,1,1-.5-.5A.5.5,0,0,1,195.15,27.92Z"/>
              <path class="cls-6" d="M198.42,27.92a.51.51,0,1,1-.51-.5A.5.5,0,0,1,198.42,27.92Z"/>
              <path class="cls-6" d="M201.68,27.92a.5.5,0,1,1-.5-.5A.5.5,0,0,1,201.68,27.92Z"/>
              <path class="cls-6" d="M204.94,27.92a.5.5,0,1,1-.5-.5A.5.5,0,0,1,204.94,27.92Z"/>
              <path class="cls-6" d="M208.21,27.92a.51.51,0,1,1-.5-.5A.5.5,0,0,1,208.21,27.92Z"/>
              <path class="cls-6" d="M211.47,27.92a.5.5,0,1,1-.5-.5A.5.5,0,0,1,211.47,27.92Z"/>
              <path class="cls-6" d="M214.74,27.92a.51.51,0,1,1-.51-.5A.5.5,0,0,1,214.74,27.92Z"/>
              <path class="cls-6" d="M218,27.92a.5.5,0,1,1-.5-.5A.5.5,0,0,1,218,27.92Z"/>
            </g>
          </g>
        </g>
      </g>
      <g class="cls-5">
        <g>
          <g>
            <g>
              <path class="cls-6" d="M228.89,68a.5.5,0,0,1-1,0,.5.5,0,1,1,1,0Z"/>
              <path class="cls-6" d="M232.16,68a.51.51,0,1,1-.51-.5A.51.51,0,0,1,232.16,68Z"/>
              <path class="cls-6" d="M235.42,68a.5.5,0,1,1-1,0,.5.5,0,0,1,1,0Z"/>
              <path class="cls-6" d="M238.68,68a.5.5,0,0,1-1,0,.5.5,0,1,1,1,0Z"/>
              <path class="cls-6" d="M242,68a.51.51,0,0,1-1,0,.51.51,0,0,1,1,0Z"/>
              <path class="cls-6" d="M245.21,68a.5.5,0,1,1-1,0,.5.5,0,0,1,1,0Z"/>
              <path class="cls-6" d="M248.48,68a.51.51,0,1,1-.51-.5A.51.51,0,0,1,248.48,68Z"/>
              <path class="cls-6" d="M251.74,68a.5.5,0,0,1-1,0,.5.5,0,1,1,1,0Z"/>
            </g>
            <g>
              <path class="cls-6" d="M228.89,71.58a.5.5,0,1,1-.5-.5A.5.5,0,0,1,228.89,71.58Z"/>
              <path class="cls-6" d="M232.16,71.58a.51.51,0,1,1-.51-.5A.51.51,0,0,1,232.16,71.58Z"/>
              <path class="cls-6" d="M235.42,71.58a.5.5,0,1,1-.5-.5A.5.5,0,0,1,235.42,71.58Z"/>
              <path class="cls-6" d="M238.68,71.58a.5.5,0,1,1-.5-.5A.5.5,0,0,1,238.68,71.58Z"/>
              <path class="cls-6" d="M242,71.58a.51.51,0,1,1-.5-.5A.51.51,0,0,1,242,71.58Z"/>
              <path class="cls-6" d="M245.21,71.58a.5.5,0,1,1-.5-.5A.5.5,0,0,1,245.21,71.58Z"/>
              <path class="cls-6" d="M248.48,71.58a.51.51,0,1,1-.51-.5A.51.51,0,0,1,248.48,71.58Z"/>
              <path class="cls-6" d="M251.74,71.58a.5.5,0,1,1-.5-.5A.5.5,0,0,1,251.74,71.58Z"/>
            </g>
            <g>
              <circle class="cls-6" cx="228.39" cy="75.15" r="0.5"/>
              <circle class="cls-6" cx="231.65" cy="75.15" r="0.5"/>
              <circle class="cls-6" cx="234.92" cy="75.15" r="0.5"/>
              <circle class="cls-6" cx="238.18" cy="75.15" r="0.5"/>
              <path class="cls-6" d="M242,75.15a.51.51,0,1,1-.5-.51A.51.51,0,0,1,242,75.15Z"/>
              <path class="cls-6" d="M245.21,75.15a.5.5,0,1,1-.5-.51A.5.5,0,0,1,245.21,75.15Z"/>
              <path class="cls-6" d="M248.48,75.15a.51.51,0,1,1-.51-.51A.51.51,0,0,1,248.48,75.15Z"/>
              <path class="cls-6" d="M251.74,75.15a.5.5,0,1,1-.5-.51A.5.5,0,0,1,251.74,75.15Z"/>
            </g>
            <g>
              <circle class="cls-6" cx="228.39" cy="78.71" r="0.5"/>
              <circle class="cls-6" cx="231.65" cy="78.71" r="0.5"/>
              <circle class="cls-6" cx="234.92" cy="78.71" r="0.5"/>
              <circle class="cls-6" cx="238.18" cy="78.71" r="0.5"/>
              <path class="cls-6" d="M242,78.71a.51.51,0,1,1-.5-.5A.5.5,0,0,1,242,78.71Z"/>
              <path class="cls-6" d="M245.21,78.71a.5.5,0,1,1-.5-.5A.5.5,0,0,1,245.21,78.71Z"/>
              <path class="cls-6" d="M248.48,78.71a.51.51,0,1,1-.51-.5A.5.5,0,0,1,248.48,78.71Z"/>
              <path class="cls-6" d="M251.74,78.71a.5.5,0,1,1-.5-.5A.5.5,0,0,1,251.74,78.71Z"/>
            </g>
            <g>
              <circle class="cls-6" cx="228.39" cy="82.27" r="0.5"/>
              <circle class="cls-6" cx="231.65" cy="82.27" r="0.5"/>
              <circle class="cls-6" cx="234.92" cy="82.27" r="0.5"/>
              <circle class="cls-6" cx="238.18" cy="82.27" r="0.5"/>
              <path class="cls-6" d="M242,82.27a.51.51,0,1,1-.5-.5A.5.5,0,0,1,242,82.27Z"/>
              <path class="cls-6" d="M245.21,82.27a.5.5,0,1,1-.5-.5A.5.5,0,0,1,245.21,82.27Z"/>
              <path class="cls-6" d="M248.48,82.27a.51.51,0,1,1-.51-.5A.5.5,0,0,1,248.48,82.27Z"/>
              <path class="cls-6" d="M251.74,82.27a.5.5,0,1,1-.5-.5A.5.5,0,0,1,251.74,82.27Z"/>
            </g>
            <g>
              <circle class="cls-6" cx="228.39" cy="85.83" r="0.5"/>
              <circle class="cls-6" cx="231.65" cy="85.83" r="0.5"/>
              <circle class="cls-6" cx="234.92" cy="85.83" r="0.5"/>
              <circle class="cls-6" cx="238.18" cy="85.83" r="0.5"/>
              <path class="cls-6" d="M242,85.83a.51.51,0,0,1-1,0,.51.51,0,0,1,1,0Z"/>
              <path class="cls-6" d="M245.21,85.83a.5.5,0,1,1-1,0,.5.5,0,0,1,1,0Z"/>
              <path class="cls-6" d="M248.48,85.83a.51.51,0,1,1-.51-.5A.51.51,0,0,1,248.48,85.83Z"/>
              <path class="cls-6" d="M251.74,85.83a.5.5,0,0,1-1,0,.5.5,0,1,1,1,0Z"/>
            </g>
            <g>
              <path class="cls-6" d="M228.89,89.39a.5.5,0,1,1-.5-.5A.5.5,0,0,1,228.89,89.39Z"/>
              <path class="cls-6" d="M232.16,89.39a.51.51,0,1,1-.51-.5A.51.51,0,0,1,232.16,89.39Z"/>
              <path class="cls-6" d="M235.42,89.39a.5.5,0,1,1-.5-.5A.5.5,0,0,1,235.42,89.39Z"/>
              <path class="cls-6" d="M238.68,89.39a.5.5,0,1,1-.5-.5A.5.5,0,0,1,238.68,89.39Z"/>
              <path class="cls-6" d="M242,89.39a.51.51,0,1,1-.5-.5A.51.51,0,0,1,242,89.39Z"/>
              <path class="cls-6" d="M245.21,89.39a.5.5,0,1,1-.5-.5A.5.5,0,0,1,245.21,89.39Z"/>
              <path class="cls-6" d="M248.48,89.39a.51.51,0,1,1-.51-.5A.51.51,0,0,1,248.48,89.39Z"/>
              <path class="cls-6" d="M251.74,89.39a.5.5,0,1,1-.5-.5A.5.5,0,0,1,251.74,89.39Z"/>
            </g>
          </g>
          <g>
            <g>
              <path class="cls-6" d="M255.15,68a.5.5,0,1,1-1,0,.5.5,0,0,1,1,0Z"/>
              <path class="cls-6" d="M258.42,68a.51.51,0,1,1-.51-.5A.51.51,0,0,1,258.42,68Z"/>
              <path class="cls-6" d="M261.68,68a.5.5,0,0,1-1,0,.5.5,0,1,1,1,0Z"/>
              <path class="cls-6" d="M264.94,68a.5.5,0,0,1-1,0,.5.5,0,1,1,1,0Z"/>
              <path class="cls-6" d="M268.21,68a.51.51,0,0,1-1,0,.51.51,0,0,1,1,0Z"/>
              <path class="cls-6" d="M271.47,68a.5.5,0,0,1-1,0,.5.5,0,1,1,1,0Z"/>
              <path class="cls-6" d="M274.74,68a.51.51,0,1,1-.51-.5A.51.51,0,0,1,274.74,68Z"/>
              <path class="cls-6" d="M278,68a.5.5,0,0,1-1,0,.5.5,0,1,1,1,0Z"/>
            </g>
            <g>
              <path class="cls-6" d="M255.15,71.58a.5.5,0,1,1-.5-.5A.5.5,0,0,1,255.15,71.58Z"/>
              <path class="cls-6" d="M258.42,71.58a.51.51,0,1,1-.51-.5A.51.51,0,0,1,258.42,71.58Z"/>
              <path class="cls-6" d="M261.68,71.58a.5.5,0,1,1-.5-.5A.5.5,0,0,1,261.68,71.58Z"/>
              <path class="cls-6" d="M264.94,71.58a.5.5,0,1,1-.5-.5A.5.5,0,0,1,264.94,71.58Z"/>
              <path class="cls-6" d="M268.21,71.58a.51.51,0,1,1-.5-.5A.51.51,0,0,1,268.21,71.58Z"/>
              <path class="cls-6" d="M271.47,71.58a.5.5,0,1,1-.5-.5A.5.5,0,0,1,271.47,71.58Z"/>
              <path class="cls-6" d="M274.74,71.58a.51.51,0,1,1-.51-.5A.51.51,0,0,1,274.74,71.58Z"/>
              <path class="cls-6" d="M278,71.58a.5.5,0,1,1-.5-.5A.5.5,0,0,1,278,71.58Z"/>
            </g>
            <g>
              <circle class="cls-6" cx="254.65" cy="75.15" r="0.5"/>
              <circle class="cls-6" cx="257.91" cy="75.15" r="0.5"/>
              <path class="cls-6" d="M261.68,75.15a.5.5,0,1,1-.5-.51A.5.5,0,0,1,261.68,75.15Z"/>
              <circle class="cls-6" cx="264.44" cy="75.15" r="0.5"/>
              <path class="cls-6" d="M268.21,75.15a.51.51,0,1,1-.5-.51A.51.51,0,0,1,268.21,75.15Z"/>
              <circle class="cls-6" cx="270.97" cy="75.15" r="0.5"/>
              <circle class="cls-6" cx="274.23" cy="75.15" r="0.5"/>
              <circle class="cls-6" cx="277.5" cy="75.15" r="0.5"/>
            </g>
            <g>
              <circle class="cls-6" cx="254.65" cy="78.71" r="0.5"/>
              <circle class="cls-6" cx="257.91" cy="78.71" r="0.5"/>
              <path class="cls-6" d="M261.68,78.71a.5.5,0,1,1-.5-.5A.5.5,0,0,1,261.68,78.71Z"/>
              <circle class="cls-6" cx="264.44" cy="78.71" r="0.5"/>
              <path class="cls-6" d="M268.21,78.71a.51.51,0,1,1-.5-.5A.5.5,0,0,1,268.21,78.71Z"/>
              <circle class="cls-6" cx="270.97" cy="78.71" r="0.5"/>
              <circle class="cls-6" cx="274.23" cy="78.71" r="0.5"/>
              <circle class="cls-6" cx="277.5" cy="78.71" r="0.5"/>
            </g>
            <g>
              <circle class="cls-6" cx="254.65" cy="82.27" r="0.5"/>
              <circle class="cls-6" cx="257.91" cy="82.27" r="0.5"/>
              <path class="cls-6" d="M261.68,82.27a.5.5,0,1,1-.5-.5A.5.5,0,0,1,261.68,82.27Z"/>
              <circle class="cls-6" cx="264.44" cy="82.27" r="0.5"/>
              <path class="cls-6" d="M268.21,82.27a.51.51,0,1,1-.5-.5A.5.5,0,0,1,268.21,82.27Z"/>
              <circle class="cls-6" cx="270.97" cy="82.27" r="0.5"/>
              <circle class="cls-6" cx="274.23" cy="82.27" r="0.5"/>
              <circle class="cls-6" cx="277.5" cy="82.27" r="0.5"/>
            </g>
            <g>
              <circle class="cls-6" cx="254.65" cy="85.83" r="0.5"/>
              <circle class="cls-6" cx="257.91" cy="85.83" r="0.5"/>
              <path class="cls-6" d="M261.68,85.83a.5.5,0,0,1-1,0,.5.5,0,1,1,1,0Z"/>
              <circle class="cls-6" cx="264.44" cy="85.83" r="0.5"/>
              <path class="cls-6" d="M268.21,85.83a.51.51,0,0,1-1,0,.51.51,0,0,1,1,0Z"/>
              <circle class="cls-6" cx="270.97" cy="85.83" r="0.5"/>
              <circle class="cls-6" cx="274.23" cy="85.83" r="0.5"/>
              <circle class="cls-6" cx="277.5" cy="85.83" r="0.5"/>
            </g>
            <g>
              <path class="cls-6" d="M255.15,89.39a.5.5,0,1,1-.5-.5A.5.5,0,0,1,255.15,89.39Z"/>
              <path class="cls-6" d="M258.42,89.39a.51.51,0,1,1-.51-.5A.51.51,0,0,1,258.42,89.39Z"/>
              <path class="cls-6" d="M261.68,89.39a.5.5,0,1,1-.5-.5A.5.5,0,0,1,261.68,89.39Z"/>
              <path class="cls-6" d="M264.94,89.39a.5.5,0,1,1-.5-.5A.5.5,0,0,1,264.94,89.39Z"/>
              <path class="cls-6" d="M268.21,89.39a.51.51,0,1,1-.5-.5A.51.51,0,0,1,268.21,89.39Z"/>
              <path class="cls-6" d="M271.47,89.39a.5.5,0,1,1-.5-.5A.5.5,0,0,1,271.47,89.39Z"/>
              <path class="cls-6" d="M274.74,89.39a.51.51,0,1,1-.51-.5A.51.51,0,0,1,274.74,89.39Z"/>
              <path class="cls-6" d="M278,89.39a.5.5,0,1,1-.5-.5A.5.5,0,0,1,278,89.39Z"/>
            </g>
          </g>
        </g>
        <g>
          <g>
            <g>
              <circle class="cls-6" cx="228.39" cy="43.55" r="0.5"/>
              <circle class="cls-6" cx="231.65" cy="43.55" r="0.5"/>
              <circle class="cls-6" cx="234.92" cy="43.55" r="0.5"/>
              <circle class="cls-6" cx="238.18" cy="43.55" r="0.5"/>
              <path class="cls-6" d="M242,43.55a.51.51,0,1,1-.5-.5A.5.5,0,0,1,242,43.55Z"/>
              <path class="cls-6" d="M245.21,43.55a.5.5,0,1,1-.5-.5A.5.5,0,0,1,245.21,43.55Z"/>
              <path class="cls-6" d="M248.48,43.55a.51.51,0,1,1-.51-.5A.5.5,0,0,1,248.48,43.55Z"/>
              <path class="cls-6" d="M251.74,43.55a.5.5,0,1,1-.5-.5A.5.5,0,0,1,251.74,43.55Z"/>
            </g>
            <g>
              <circle class="cls-6" cx="228.39" cy="47.11" r="0.5"/>
              <circle class="cls-6" cx="231.65" cy="47.11" r="0.5"/>
              <circle class="cls-6" cx="234.92" cy="47.11" r="0.5"/>
              <circle class="cls-6" cx="238.18" cy="47.11" r="0.5"/>
              <path class="cls-6" d="M242,47.11a.51.51,0,1,1-.5-.5A.5.5,0,0,1,242,47.11Z"/>
              <path class="cls-6" d="M245.21,47.11a.5.5,0,1,1-.5-.5A.5.5,0,0,1,245.21,47.11Z"/>
              <path class="cls-6" d="M248.48,47.11a.51.51,0,1,1-.51-.5A.5.5,0,0,1,248.48,47.11Z"/>
              <path class="cls-6" d="M251.74,47.11a.5.5,0,1,1-.5-.5A.5.5,0,0,1,251.74,47.11Z"/>
            </g>
            <g>
              <path class="cls-6" d="M228.89,50.67a.5.5,0,1,1-.5-.5A.5.5,0,0,1,228.89,50.67Z"/>
              <path class="cls-6" d="M232.16,50.67a.51.51,0,1,1-.51-.5A.51.51,0,0,1,232.16,50.67Z"/>
              <path class="cls-6" d="M235.42,50.67a.5.5,0,1,1-.5-.5A.5.5,0,0,1,235.42,50.67Z"/>
              <path class="cls-6" d="M238.68,50.67a.5.5,0,1,1-.5-.5A.5.5,0,0,1,238.68,50.67Z"/>
              <path class="cls-6" d="M242,50.67a.51.51,0,1,1-.5-.5A.51.51,0,0,1,242,50.67Z"/>
              <path class="cls-6" d="M245.21,50.67a.5.5,0,1,1-.5-.5A.5.5,0,0,1,245.21,50.67Z"/>
              <path class="cls-6" d="M248.48,50.67a.51.51,0,1,1-.51-.5A.51.51,0,0,1,248.48,50.67Z"/>
              <path class="cls-6" d="M251.74,50.67a.5.5,0,1,1-.5-.5A.5.5,0,0,1,251.74,50.67Z"/>
            </g>
            <g>
              <path class="cls-6" d="M228.89,54.24a.5.5,0,1,1-.5-.51A.5.5,0,0,1,228.89,54.24Z"/>
              <path class="cls-6" d="M232.16,54.24a.51.51,0,1,1-.51-.51A.51.51,0,0,1,232.16,54.24Z"/>
              <path class="cls-6" d="M235.42,54.24a.5.5,0,1,1-.5-.51A.5.5,0,0,1,235.42,54.24Z"/>
              <path class="cls-6" d="M238.68,54.24a.5.5,0,1,1-.5-.51A.5.5,0,0,1,238.68,54.24Z"/>
              <path class="cls-6" d="M242,54.24a.51.51,0,1,1-.5-.51A.51.51,0,0,1,242,54.24Z"/>
              <path class="cls-6" d="M245.21,54.24a.5.5,0,1,1-.5-.51A.5.5,0,0,1,245.21,54.24Z"/>
              <path class="cls-6" d="M248.48,54.24a.51.51,0,1,1-.51-.51A.51.51,0,0,1,248.48,54.24Z"/>
              <path class="cls-6" d="M251.74,54.24a.5.5,0,1,1-.5-.51A.5.5,0,0,1,251.74,54.24Z"/>
            </g>
            <g>
              <circle class="cls-6" cx="228.39" cy="57.8" r="0.5"/>
              <circle class="cls-6" cx="231.65" cy="57.8" r="0.5"/>
              <circle class="cls-6" cx="234.92" cy="57.8" r="0.5"/>
              <circle class="cls-6" cx="238.18" cy="57.8" r="0.5"/>
              <path class="cls-6" d="M242,57.8a.51.51,0,1,1-.5-.5A.5.5,0,0,1,242,57.8Z"/>
              <path class="cls-6" d="M245.21,57.8a.5.5,0,0,1-1,0,.5.5,0,1,1,1,0Z"/>
              <path class="cls-6" d="M248.48,57.8a.51.51,0,0,1-1,0,.51.51,0,0,1,1,0Z"/>
              <path class="cls-6" d="M251.74,57.8a.5.5,0,1,1-1,0,.5.5,0,0,1,1,0Z"/>
            </g>
            <g>
              <circle class="cls-6" cx="228.39" cy="61.36" r="0.5"/>
              <circle class="cls-6" cx="231.65" cy="61.36" r="0.5"/>
              <circle class="cls-6" cx="234.92" cy="61.36" r="0.5"/>
              <circle class="cls-6" cx="238.18" cy="61.36" r="0.5"/>
              <path class="cls-6" d="M242,61.36a.51.51,0,1,1-.5-.5A.5.5,0,0,1,242,61.36Z"/>
              <path class="cls-6" d="M245.21,61.36a.5.5,0,1,1-.5-.5A.5.5,0,0,1,245.21,61.36Z"/>
              <path class="cls-6" d="M248.48,61.36a.51.51,0,1,1-.51-.5A.5.5,0,0,1,248.48,61.36Z"/>
              <path class="cls-6" d="M251.74,61.36a.5.5,0,1,1-.5-.5A.5.5,0,0,1,251.74,61.36Z"/>
            </g>
            <g>
              <path class="cls-6" d="M228.89,64.92a.5.5,0,1,1-.5-.5A.5.5,0,0,1,228.89,64.92Z"/>
              <path class="cls-6" d="M232.16,64.92a.51.51,0,1,1-.51-.5A.5.5,0,0,1,232.16,64.92Z"/>
              <path class="cls-6" d="M235.42,64.92a.5.5,0,1,1-.5-.5A.5.5,0,0,1,235.42,64.92Z"/>
              <path class="cls-6" d="M238.68,64.92a.5.5,0,1,1-.5-.5A.5.5,0,0,1,238.68,64.92Z"/>
              <path class="cls-6" d="M242,64.92a.51.51,0,1,1-.5-.5A.5.5,0,0,1,242,64.92Z"/>
              <path class="cls-6" d="M245.21,64.92a.5.5,0,1,1-.5-.5A.5.5,0,0,1,245.21,64.92Z"/>
              <path class="cls-6" d="M248.48,64.92a.51.51,0,1,1-.51-.5A.5.5,0,0,1,248.48,64.92Z"/>
              <path class="cls-6" d="M251.74,64.92a.5.5,0,1,1-.5-.5A.5.5,0,0,1,251.74,64.92Z"/>
            </g>
          </g>
          <g>
            <g>
              <circle class="cls-6" cx="254.65" cy="43.55" r="0.5"/>
              <circle class="cls-6" cx="257.91" cy="43.55" r="0.5"/>
              <path class="cls-6" d="M261.68,43.55a.5.5,0,1,1-.5-.5A.5.5,0,0,1,261.68,43.55Z"/>
              <circle class="cls-6" cx="264.44" cy="43.55" r="0.5"/>
              <path class="cls-6" d="M268.21,43.55a.51.51,0,1,1-.5-.5A.5.5,0,0,1,268.21,43.55Z"/>
              <circle class="cls-6" cx="270.97" cy="43.55" r="0.5"/>
              <circle class="cls-6" cx="274.23" cy="43.55" r="0.5"/>
              <circle class="cls-6" cx="277.5" cy="43.55" r="0.5"/>
            </g>
            <g>
              <circle class="cls-6" cx="254.65" cy="47.11" r="0.5"/>
              <circle class="cls-6" cx="257.91" cy="47.11" r="0.5"/>
              <path class="cls-6" d="M261.68,47.11a.5.5,0,1,1-.5-.5A.5.5,0,0,1,261.68,47.11Z"/>
              <circle class="cls-6" cx="264.44" cy="47.11" r="0.5"/>
              <path class="cls-6" d="M268.21,47.11a.51.51,0,1,1-.5-.5A.5.5,0,0,1,268.21,47.11Z"/>
              <circle class="cls-6" cx="270.97" cy="47.11" r="0.5"/>
              <circle class="cls-6" cx="274.23" cy="47.11" r="0.5"/>
              <circle class="cls-6" cx="277.5" cy="47.11" r="0.5"/>
            </g>
            <g>
              <path class="cls-6" d="M255.15,50.67a.5.5,0,1,1-.5-.5A.5.5,0,0,1,255.15,50.67Z"/>
              <path class="cls-6" d="M258.42,50.67a.51.51,0,1,1-.51-.5A.51.51,0,0,1,258.42,50.67Z"/>
              <path class="cls-6" d="M261.68,50.67a.5.5,0,1,1-.5-.5A.5.5,0,0,1,261.68,50.67Z"/>
              <path class="cls-6" d="M264.94,50.67a.5.5,0,1,1-.5-.5A.5.5,0,0,1,264.94,50.67Z"/>
              <path class="cls-6" d="M268.21,50.67a.51.51,0,1,1-.5-.5A.51.51,0,0,1,268.21,50.67Z"/>
              <path class="cls-6" d="M271.47,50.67a.5.5,0,1,1-.5-.5A.5.5,0,0,1,271.47,50.67Z"/>
              <path class="cls-6" d="M274.74,50.67a.51.51,0,1,1-.51-.5A.51.51,0,0,1,274.74,50.67Z"/>
              <path class="cls-6" d="M278,50.67a.5.5,0,1,1-.5-.5A.5.5,0,0,1,278,50.67Z"/>
            </g>
            <g>
              <path class="cls-6" d="M255.15,54.24a.5.5,0,1,1-.5-.51A.5.5,0,0,1,255.15,54.24Z"/>
              <path class="cls-6" d="M258.42,54.24a.51.51,0,1,1-.51-.51A.51.51,0,0,1,258.42,54.24Z"/>
              <path class="cls-6" d="M261.68,54.24a.5.5,0,1,1-.5-.51A.5.5,0,0,1,261.68,54.24Z"/>
              <path class="cls-6" d="M264.94,54.24a.5.5,0,1,1-.5-.51A.5.5,0,0,1,264.94,54.24Z"/>
              <path class="cls-6" d="M268.21,54.24a.51.51,0,1,1-.5-.51A.51.51,0,0,1,268.21,54.24Z"/>
              <path class="cls-6" d="M271.47,54.24a.5.5,0,1,1-.5-.51A.5.5,0,0,1,271.47,54.24Z"/>
              <path class="cls-6" d="M274.74,54.24a.51.51,0,1,1-.51-.51A.51.51,0,0,1,274.74,54.24Z"/>
              <path class="cls-6" d="M278,54.24a.5.5,0,1,1-.5-.51A.5.5,0,0,1,278,54.24Z"/>
            </g>
            <g>
              <circle class="cls-6" cx="254.65" cy="57.8" r="0.5"/>
              <circle class="cls-6" cx="257.91" cy="57.8" r="0.5"/>
              <path class="cls-6" d="M261.68,57.8a.5.5,0,1,1-1,0,.5.5,0,0,1,1,0Z"/>
              <circle class="cls-6" cx="264.44" cy="57.8" r="0.5"/>
              <path class="cls-6" d="M268.21,57.8a.51.51,0,1,1-.5-.5A.5.5,0,0,1,268.21,57.8Z"/>
              <circle class="cls-6" cx="270.97" cy="57.8" r="0.5"/>
              <circle class="cls-6" cx="274.23" cy="57.8" r="0.5"/>
              <circle class="cls-6" cx="277.5" cy="57.8" r="0.5"/>
            </g>
            <g>
              <circle class="cls-6" cx="254.65" cy="61.36" r="0.5"/>
              <circle class="cls-6" cx="257.91" cy="61.36" r="0.5"/>
              <path class="cls-6" d="M261.68,61.36a.5.5,0,1,1-.5-.5A.5.5,0,0,1,261.68,61.36Z"/>
              <circle class="cls-6" cx="264.44" cy="61.36" r="0.5"/>
              <path class="cls-6" d="M268.21,61.36a.51.51,0,1,1-.5-.5A.5.5,0,0,1,268.21,61.36Z"/>
              <circle class="cls-6" cx="270.97" cy="61.36" r="0.5"/>
              <circle class="cls-6" cx="274.23" cy="61.36" r="0.5"/>
              <circle class="cls-6" cx="277.5" cy="61.36" r="0.5"/>
            </g>
            <g>
              <path class="cls-6" d="M255.15,64.92a.5.5,0,1,1-.5-.5A.5.5,0,0,1,255.15,64.92Z"/>
              <path class="cls-6" d="M258.42,64.92a.51.51,0,1,1-.51-.5A.5.5,0,0,1,258.42,64.92Z"/>
              <path class="cls-6" d="M261.68,64.92a.5.5,0,1,1-.5-.5A.5.5,0,0,1,261.68,64.92Z"/>
              <path class="cls-6" d="M264.94,64.92a.5.5,0,1,1-.5-.5A.5.5,0,0,1,264.94,64.92Z"/>
              <path class="cls-6" d="M268.21,64.92a.51.51,0,1,1-.5-.5A.5.5,0,0,1,268.21,64.92Z"/>
              <path class="cls-6" d="M271.47,64.92a.5.5,0,1,1-.5-.5A.5.5,0,0,1,271.47,64.92Z"/>
              <path class="cls-6" d="M274.74,64.92a.51.51,0,1,1-.51-.5A.5.5,0,0,1,274.74,64.92Z"/>
              <path class="cls-6" d="M278,64.92a.5.5,0,1,1-.5-.5A.5.5,0,0,1,278,64.92Z"/>
            </g>
          </g>
        </g>
      </g>
      <g>
        <path class="cls-7" d="M260.75,61.1a.64.64,0,0,1-.2.16l-5.23,3a6.58,6.58,0,0,1-3.32.89h-1.19a9.15,9.15,0,0,0-4.57,1.23l-13.59,7.84-3.24,1.87-1.54.9a2.38,2.38,0,0,1-2.34,0l-2.8-1.62a2.89,2.89,0,0,0-2.9,0l-1.48.86a2.28,2.28,0,0,1-2.26,0L210.45,73l-2.06-1.19-25-14.45a.83.83,0,0,1-.21-.16.9.9,0,0,1,.21-1.39h0l22.79-13.17a3.18,3.18,0,0,1,3.16,0l3.79,2.2a2.8,2.8,0,0,0,2.8,0l2.68-1.55a2.66,2.66,0,0,1,2.67,0l6.85,3.95a2.62,2.62,0,0,0,2.6,0L241.53,41a2.82,2.82,0,0,1,2.81,0l14.88,8.59a.9.9,0,0,1,.2,1.4,1.57,1.57,0,0,1-.19.15l-5.36,3.2a.9.9,0,0,0-.19,1.39,1.08,1.08,0,0,0,.2.16l6.67,3.85A.89.89,0,0,1,260.75,61.1Z"/>
        <path class="cls-8" d="M260.75,61.1a.64.64,0,0,1-.2.16l-5.23,3a6.58,6.58,0,0,1-3.32.89h-1.19a9.15,9.15,0,0,0-4.57,1.23l-13.59,7.84-3.24,1.87-1.54.9a2.38,2.38,0,0,1-2.34,0l-2.8-1.62a2.89,2.89,0,0,0-2.9,0l-1.48.86a2.28,2.28,0,0,1-2.26,0L210.45,73l-2.06-1.19-25-14.45a.83.83,0,0,1-.21-.16,1.16,1.16,0,0,1,.21-.16h0l22.79-13.16a3.18,3.18,0,0,1,3.16,0l3.79,2.19a2.8,2.8,0,0,0,2.8,0l2.68-1.55a2.7,2.7,0,0,1,2.67,0l6.85,4a2.57,2.57,0,0,0,2.6,0l10.82-6.25a2.82,2.82,0,0,1,2.81,0l14.88,8.59a.64.64,0,0,1,.2.16,1.57,1.57,0,0,1-.19.15l-5.36,3.2a.9.9,0,0,0-.19,1.39.9.9,0,0,0,.2,1.4L260.55,61A.62.62,0,0,1,260.75,61.1Z"/>
        <path class="cls-9" d="M216.53,50.11l4.25-2.46a.64.64,0,0,1,.63,0l4.25,2.46a.2.2,0,0,1,0,.33l-4.25,2.45a.64.64,0,0,1-.63,0l-4.25-2.45A.2.2,0,0,1,216.53,50.11Z"/>
        <path class="cls-10" d="M219.6,50.34l1.37.79a.36.36,0,0,0,.27,0c.42-.1,1.59-.44,1.47-.9A1.85,1.85,0,0,0,220.56,49a1.16,1.16,0,0,0-1.07,1.09A.22.22,0,0,0,219.6,50.34Z"/>
        <path class="cls-11" d="M220,49.3a.4.4,0,0,1,.29-.43.43.43,0,0,1,.51.19A1.05,1.05,0,0,1,220,49.3Z"/>
        <path class="cls-12" d="M185.92,54.33l24.34-14a3.08,3.08,0,0,0,1.54-2.67V18.9a.8.8,0,0,0-1.2-.7L186.26,32.25a3.09,3.09,0,0,0-1.54,2.67V53.64A.8.8,0,0,0,185.92,54.33Z"/>
        <polygon class="cls-12" points="208.68 51.71 208.68 51.89 208.49 51.76 208.68 51.71"/>
        <path class="cls-12" d="M198.1,42.61V51.8l4.6,2.66a2,2,0,0,0,2,0l3.81-2.2a.41.41,0,0,0,0-.71l-4.79-2.78V39.39Z"/>
        <path class="cls-11" d="M198.26,42.31v9.38l4.44,2.57a2,2,0,0,0,2,0l3.81-2.21a.41.41,0,0,0,0-.71l-4.79-2.77V39.19Z"/>
        <path class="cls-13" d="M213.16,19.68V38.4a3.07,3.07,0,0,1-1.54,2.67l-24.33,14a.8.8,0,0,1-1.2-.69V35.7A3.07,3.07,0,0,1,187.62,33L212,19A.81.81,0,0,1,213.16,19.68Z"/>
        <polygon class="cls-10" points="186.69 35.7 212.72 20.64 212.72 35.73 186.69 50.77 186.69 35.7"/>
        <polygon class="cls-11" points="186.54 55.15 186.74 55.24 186.67 55.06 186.54 55.15"/>
        <polygon class="cls-12" points="185.13 54.33 186.44 55.09 186.31 53.55 185.13 54.33"/>
        <path class="cls-11" d="M213.15,35.49V38.4a3.07,3.07,0,0,1-1.54,2.67l-24.33,14a.8.8,0,0,1-1.2-.69v-3.3Z"/>
        <polygon class="cls-11" points="213.15 35.49 213.36 35.59 213.06 35.96 213.15 35.49"/>
        <path class="cls-10" d="M213.36,35.59V38.5a3.09,3.09,0,0,1-1.54,2.67l-24.33,14a.8.8,0,0,1-1.2-.7v-3.3Z"/>
        <path class="cls-12" d="M198.26,51.69l.49.29a12.44,12.44,0,0,0,3.58-1.44,4.86,4.86,0,0,0,1.77-1.73l-.42-.24Z"/>
        <path class="cls-14" d="M207.88,27.74V38.53l-16.16,9.33V37.23a1,1,0,0,1,.49-.84l15.32-8.85A.23.23,0,0,1,207.88,27.74Z"/>
        <path class="cls-12" d="M207.88,27.74v1.89L191.72,39V37.23a1,1,0,0,1,.49-.84l15.32-8.85A.23.23,0,0,1,207.88,27.74Z"/>
        <path class="cls-15" d="M193.15,37.07a.69.69,0,0,1-.31.54c-.17.1-.31,0-.31-.18a.69.69,0,0,1,.31-.54C193,36.8,193.15,36.88,193.15,37.07Z"/>
        <path class="cls-16" d="M194.16,36.49a.69.69,0,0,1-.31.54c-.17.1-.31,0-.31-.18a.69.69,0,0,1,.31-.54C194,36.21,194.16,36.29,194.16,36.49Z"/>
        <path class="cls-17" d="M195.17,35.91a.69.69,0,0,1-.31.54c-.17.09-.31,0-.31-.18a.69.69,0,0,1,.31-.54C195,35.63,195.17,35.71,195.17,35.91Z"/>
        <polygon class="cls-11" points="220.6 53.85 220.6 54.12 220.33 53.96 220.6 53.85"/>
        <polygon class="cls-11" points="200.5 58.55 200.5 58.3 200.75 58.42 200.5 58.55"/>
        <path class="cls-11" d="M200.54,58.62l6.06,3.5a.23.23,0,0,0,.18,0l13.79-8s0-.07,0-.11l-6.06-3.5a.19.19,0,0,0-.18,0l-13.78,7.95C200.48,58.54,200.49,58.59,200.54,58.62Z"/>
        <path class="cls-10" d="M200.54,58.35l6.06,3.5a.19.19,0,0,0,.18,0l13.79-8s0-.07,0-.1l-6.06-3.5a.19.19,0,0,0-.18,0l-13.78,8C200.48,58.28,200.49,58.32,200.54,58.35Z"/>
        <path class="cls-13" d="M202.44,58.52l-.49.28a.07.07,0,0,1-.09,0l-.56-.33s0,0,0,0l.49-.28h.09l.57.33S202.47,58.51,202.44,58.52Z"/>
        <path class="cls-13" d="M203.38,58l-.49.28a.07.07,0,0,1-.09,0l-.57-.33s0,0,0,0l.48-.28h.1l.56.33S203.4,58,203.38,58Z"/>
        <path class="cls-13" d="M204.31,57.44l-.49.28a.07.07,0,0,1-.09,0l-.56-.33s0,0,0,0l.49-.28a.14.14,0,0,1,.09,0l.57.33S204.34,57.43,204.31,57.44Z"/>
        <path class="cls-13" d="M205.25,56.9l-.49.28a.08.08,0,0,1-.09,0l-.57-.33s0,0,0-.05l.49-.28a.14.14,0,0,1,.09,0l.56.33S205.27,56.89,205.25,56.9Z"/>
        <path class="cls-13" d="M206.18,56.36l-.49.28a.07.07,0,0,1-.09,0l-.56-.33s0,0,0-.05l.49-.28s.06,0,.09,0l.57.33S206.21,56.35,206.18,56.36Z"/>
        <path class="cls-13" d="M207.12,55.82l-.49.28a.07.07,0,0,1-.09,0l-.57-.33s0,0,0-.05l.49-.28s.06,0,.09,0l.56.33S207.14,55.81,207.12,55.82Z"/>
        <path class="cls-13" d="M208.05,55.28l-.48.28a.09.09,0,0,1-.1,0l-.56-.33s0,0,0,0l.49-.28s.07,0,.09,0l.57.33S208.08,55.27,208.05,55.28Z"/>
        <path class="cls-13" d="M209,54.74l-.49.28a.07.07,0,0,1-.09,0l-.57-.33s0,0,0,0l.49-.28s.06,0,.09,0l.56.33S209,54.73,209,54.74Z"/>
        <path class="cls-13" d="M209.93,54.2l-.49.28a.09.09,0,0,1-.1,0l-.56-.33s0,0,0,0l.49-.28a.1.1,0,0,1,.09,0l.57.33S210,54.19,209.93,54.2Z"/>
        <path class="cls-13" d="M210.86,53.66l-.49.28a.07.07,0,0,1-.09,0l-.56-.33s0,0,0,0l.49-.28s.06,0,.09,0l.56.33S210.88,53.65,210.86,53.66Z"/>
        <path class="cls-13" d="M211.8,53.12l-.49.28a.07.07,0,0,1-.09,0l-.57-.33s0,0,0,0l.49-.28a.1.1,0,0,1,.09,0l.57.33S211.82,53.11,211.8,53.12Z"/>
        <path class="cls-13" d="M212.73,52.58l-.49.28s-.06,0-.09,0l-.56-.33s0,0,0-.05l.49-.28s.06,0,.09,0l.56.33S212.75,52.57,212.73,52.58Z"/>
        <path class="cls-13" d="M213.67,52l-.49.28a.1.1,0,0,1-.09,0l-.57-.33s0,0,0-.05l.49-.28a.12.12,0,0,1,.1,0l.56.33S213.69,52,213.67,52Z"/>
        <path class="cls-13" d="M215.23,51.14l-1.12.64s-.06,0-.09,0l-.56-.33s0,0,0-.05l1.12-.64a.07.07,0,0,1,.09,0l.56.33S215.25,51.12,215.23,51.14Z"/>
        <path class="cls-13" d="M215.82,52l.49-.28s0,0,0,0l-.56-.33a.14.14,0,0,0-.09,0l-.49.28s0,0,0,.05l.57.33A.07.07,0,0,0,215.82,52Z"/>
        <path class="cls-13" d="M214.89,52.58l.48-.28s0,0,0,0l-.57-.33a.14.14,0,0,0-.09,0l-.49.28s0,0,0,0l.56.33A.09.09,0,0,0,214.89,52.58Z"/>
        <path class="cls-13" d="M214,53.12l.49-.28s0,0,0-.05l-.56-.33h-.09l-.49.28s0,0,0,0l.57.33A.07.07,0,0,0,214,53.12Z"/>
        <path class="cls-13" d="M213,53.66l.49-.28s0,0,0-.05l-.57-.33h-.09l-.49.28s0,0,0,0l.56.33A.07.07,0,0,0,213,53.66Z"/>
        <path class="cls-13" d="M212.08,54.2l.49-.28s0,0,0-.05l-.56-.33h-.09l-.49.28s0,0,0,0l.57.33A.07.07,0,0,0,212.08,54.2Z"/>
        <path class="cls-13" d="M211.14,54.74l.49-.28s0,0,0-.05l-.57-.33H211l-.49.28s0,0,0,0l.56.33A.07.07,0,0,0,211.14,54.74Z"/>
        <path class="cls-13" d="M210.21,55.28l.49-.28s0,0,0,0l-.56-.33H210l-.48.28s0,0,0,.05l.57.33A.08.08,0,0,0,210.21,55.28Z"/>
        <path class="cls-13" d="M209.27,55.82l.49-.28s0,0,0,0l-.57-.33h-.09l-.49.28s0,0,0,.05l.56.33A.07.07,0,0,0,209.27,55.82Z"/>
        <path class="cls-13" d="M208.34,56.36l.49-.28s0,0,0,0l-.56-.33a.17.17,0,0,0-.1,0l-.48.28s0,0,0,.06l.57.32A.07.07,0,0,0,208.34,56.36Z"/>
        <path class="cls-13" d="M207.4,56.9l.49-.28s0,0,0,0l-.56-.33a.14.14,0,0,0-.09,0l-.49.28s0,0,0,.06l.56.32A.07.07,0,0,0,207.4,56.9Z"/>
        <path class="cls-13" d="M206.47,57.44l.49-.28s0,0,0,0l-.57-.33h-.09l-.49.28s0,0,0,.06l.56.32A.09.09,0,0,0,206.47,57.44Z"/>
        <path class="cls-13" d="M205.53,58l.49-.28s0,0,0-.05l-.56-.33h-.09l-.49.28s0,0,0,.06l.56.32A.07.07,0,0,0,205.53,58Z"/>
        <path class="cls-13" d="M204.6,58.52l.48-.28s0,0,0-.05l-.57-.33h-.09l-.49.28s0,0,0,.06l.56.32A.09.09,0,0,0,204.6,58.52Z"/>
        <path class="cls-13" d="M203,59.43l1.12-.65s0,0,0-.05l-.56-.33h-.09l-1.12.64s0,0,0,.06l.56.32A.1.1,0,0,0,203,59.43Z"/>
        <path class="cls-13" d="M216.12,53.12l1.27-.73s0,0,0-.06l-.56-.32a.1.1,0,0,0-.09,0l-1.28.74s0,0,0,0l.56.33A.17.17,0,0,0,216.12,53.12Z"/>
        <path class="cls-13" d="M215.12,53.7l.48-.28s0,0,0-.06L215,53a.09.09,0,0,0-.09,0l-.49.29s0,0,0,0l.56.33Z"/>
        <path class="cls-13" d="M214.18,54.24l.49-.28s0,0,0-.06l-.56-.32a.1.1,0,0,0-.09,0l-.49.29s0,0,0,0l.57.33Z"/>
        <path class="cls-13" d="M213.24,54.78l.49-.28s0,0,0-.06l-.57-.32a.1.1,0,0,0-.09,0l-.49.29s0,0,0,.05l.56.33Z"/>
        <path class="cls-13" d="M212.31,55.32l.49-.28s0,0,0-.06l-.56-.32a.1.1,0,0,0-.09,0l-.49.29s0,0,0,.05l.57.33Z"/>
        <path class="cls-13" d="M211.37,55.86l.49-.28s0,0,0-.06l-.57-.32a.1.1,0,0,0-.09,0l-.49.29s0,0,0,.05l.56.33Z"/>
        <path class="cls-13" d="M210.44,56.4l.49-.28s0,0,0-.06l-.56-.32a.12.12,0,0,0-.1,0l-.48.29s0,0,0,0l.57.33Z"/>
        <path class="cls-13" d="M209.5,56.94l.49-.28s0,0,0-.06l-.57-.32a.1.1,0,0,0-.09,0l-.49.29s0,0,0,0l.56.33A.14.14,0,0,0,209.5,56.94Z"/>
        <path class="cls-13" d="M208.57,57.48l.49-.28s0,0,0-.06l-.57-.32a.09.09,0,0,0-.09,0l-.49.29s0,0,0,0l.57.33A.14.14,0,0,0,208.57,57.48Z"/>
        <path class="cls-13" d="M207.63,58l.49-.28s0,0,0-.06l-.56-.32a.1.1,0,0,0-.09,0l-.49.29s0,0,0,0l.56.33Z"/>
        <path class="cls-13" d="M206.7,58.56l.49-.28s0,0,0-.06l-.57-.32a.09.09,0,0,0-.09,0l-.49.29s0,0,0,0l.57.33Z"/>
        <path class="cls-13" d="M205.76,59.1l.49-.28s0,0,0-.06l-.56-.32a.1.1,0,0,0-.09,0l-.49.29s0,0,0,.05l.57.33Z"/>
        <path class="cls-13" d="M204.11,60.05l1.12-.64s0,0,0-.06l-.56-.32a.1.1,0,0,0-.09,0l-1.12.65s0,0,0,0l.56.33A.14.14,0,0,0,204.11,60.05Z"/>
        <path class="cls-13" d="M216.54,55.6l.57-.33s0,0,0-.05l-.56-.33a.12.12,0,0,0-.1,0l-.57.33s0,0,0,.05l.56.33Z"/>
        <path class="cls-13" d="M215.6,56.14l.63-.37s0,0,0-.05l-.57-.33h-.09l-.63.37s0,0,0,.05l.56.33Z"/>
        <path class="cls-13" d="M210.24,59.23l4.91-2.83s0,0,0-.06l-.57-.32a.09.09,0,0,0-.09,0l-4.91,2.84s0,0,0,0l.56.33S210.22,59.25,210.24,59.23Z"/>
        <path class="cls-13" d="M209.31,59.77l.49-.28s0,0,0-.05l-.56-.33a.12.12,0,0,0-.1,0l-.48.28s0,0,0,0l.57.33A.1.1,0,0,0,209.31,59.77Z"/>
        <path class="cls-13" d="M208.37,60.31l.49-.28s0,0,0-.05l-.56-.33s-.07,0-.09,0l-.49.28s0,0,0,0l.56.33S208.35,60.33,208.37,60.31Z"/>
        <path class="cls-13" d="M207.44,60.85l.49-.28s0,0,0,0l-.56-.33a.12.12,0,0,0-.1,0l-.48.28s0,0,0,.05l.57.33A.1.1,0,0,0,207.44,60.85Z"/>
        <path class="cls-13" d="M206.5,61.39l.49-.28s0,0,0,0l-.56-.33s-.07,0-.09,0l-.49.28s0,0,0,.05l.56.33S206.48,61.41,206.5,61.39Z"/>
        <path class="cls-13" d="M217.11,53.91l1.46-.84s0,0,0-.06l-.56-.32a.1.1,0,0,0-.09,0l-1.46.84s0,0,0,.06l.56.32A.1.1,0,0,0,217.11,53.91Z"/>
        <path class="cls-13" d="M217.46,55.05l.63-.36s0,0,0,0l-.21-.12a.1.1,0,0,0-.09,0l-.63.36s0,0,0,.06l.21.12A.07.07,0,0,0,217.46,55.05Z"/>
        <path class="cls-13" d="M218.29,54.58l.62-.36s0,0,0-.06l-.22-.12a.07.07,0,0,0-.09,0l-.63.36s0,0,0,.05l.21.12A.12.12,0,0,0,218.29,54.58Z"/>
        <path class="cls-13" d="M217.89,54.35l.63-.36s0,0,0-.05l-.21-.13a.14.14,0,0,0-.09,0l-.63.36s0,0,0,0l.21.13S217.87,54.37,217.89,54.35Z"/>
        <path class="cls-13" d="M219.11,54.1l.63-.36s0,0,0-.05l-.21-.13a.17.17,0,0,0-.1,0l-.62.36s0,0,0,0l.22.13S219.09,54.12,219.11,54.1Z"/>
        <path class="cls-13" d="M216.29,54.38l.49-.28s0,0,0-.06l-.57-.32a.1.1,0,0,0-.09,0l-.49.29s0,0,0,0l.56.33Z"/>
        <path class="cls-13" d="M215.36,54.92l.49-.28s0,0,0-.06l-.56-.32a.12.12,0,0,0-.1,0l-.48.29s0,0,0,.05l.57.33Z"/>
        <path class="cls-13" d="M214.42,55.46l.49-.28s0,0,0-.06l-.57-.32a.1.1,0,0,0-.09,0l-.49.29s0,0,0,.05l.56.33Z"/>
        <path class="cls-13" d="M213.49,56l.49-.28s0,0,0-.06l-.56-.32a.12.12,0,0,0-.1,0l-.49.29s0,0,0,.05l.57.33Z"/>
        <path class="cls-13" d="M212.55,56.54l.49-.28s0,0,0-.06l-.56-.32a.1.1,0,0,0-.09,0l-.49.29s0,0,0,.05l.56.33Z"/>
        <path class="cls-13" d="M211.62,57.08l.49-.28s0,0,0-.06l-.57-.32a.09.09,0,0,0-.09,0l-.49.29s0,0,0,0l.56.33A.17.17,0,0,0,211.62,57.08Z"/>
        <path class="cls-13" d="M210.68,57.62l.49-.28s0,0,0-.06L210.6,57a.1.1,0,0,0-.09,0l-.49.29s0,0,0,0l.57.33A.14.14,0,0,0,210.68,57.62Z"/>
        <path class="cls-13" d="M209.75,58.16l.48-.28s0,0,0-.06l-.57-.32a.09.09,0,0,0-.09,0l-.49.29s0,0,0,0l.56.33A.17.17,0,0,0,209.75,58.16Z"/>
        <path class="cls-13" d="M208.81,58.7l.49-.28s0,0,0-.06l-.56-.32a.1.1,0,0,0-.09,0l-.49.29s0,0,0,0l.57.33Z"/>
        <path class="cls-13" d="M207.87,59.24l.49-.28s0,0,0-.06l-.57-.32a.1.1,0,0,0-.09,0l-.49.29s0,0,0,0l.56.33Z"/>
        <path class="cls-13" d="M206.94,59.78l.49-.28s0,0,0-.06l-.56-.32a.1.1,0,0,0-.09,0l-.49.29s0,0,0,.05l.57.33Z"/>
        <path class="cls-13" d="M205.29,60.73l1.3-.75s0,0,0,0L206,59.6a.07.07,0,0,0-.09,0l-1.3.75s0,0,0,0l.56.33A.14.14,0,0,0,205.29,60.73Z"/>
        <polygon class="cls-17" points="198.26 56.57 202.32 54.23 196.91 51.1 192.85 53.45 198.26 56.57"/>
        <polygon class="cls-18" points="192.85 53.45 192.85 55.01 198.26 58.14 202.32 55.8 202.32 54.23 198.26 56.57 192.85 53.45"/>
        <polygon class="cls-12" points="198.26 55.01 195.56 53.45 196.91 52.67 199.62 54.23 198.26 55.01"/>
        <polygon class="cls-12" points="195.56 53.45 195.56 53.24 195.98 53.35 195.73 53.53 195.56 53.45"/>
        <polygon class="cls-12" points="199.62 54.23 199.62 54.03 199.21 54.03 199.21 54.35 199.62 54.23"/>
        <polygon class="cls-10" points="197.09 54.13 198.44 53.35 196.91 51.65 195.56 52.46 195.56 53.24 197.09 54.13"/>
        <polygon class="cls-11" points="195.56 52.46 197.09 54.13 195.56 53.24 195.56 52.46"/>
        <polygon class="cls-11" points="197.09 54.13 198.44 53.35 199.62 54.03 198.26 54.8 197.09 54.13"/>
        <path class="cls-15" d="M198.27,67.52a.52.52,0,0,1-.71.19L188,62.18a1,1,0,0,1-.52-.87,1.09,1.09,0,0,1,.56-1L195.61,56a.51.51,0,0,1,.7.19h0a.5.5,0,0,1-.19.7l-7.62,4.41s0,0,0,0,0,0,0,0l9.58,5.52a.53.53,0,0,1,.19.71Z"/>
        <path class="cls-11" d="M229.4,52.67l10.83,6.25,5.42-3.13s1.35-2.34-3.38-5.08-7.45-1.17-7.45-1.17Z"/>
        <polygon class="cls-11" points="229.4 51.12 229.4 52.67 231.36 52.25 231.1 51.27 229.4 51.12"/>
        <polygon class="cls-11" points="245.83 53.47 245.83 54.95 245.45 54.8 244.97 53.88 245.83 53.47"/>
        <polygon class="cls-7" points="210.98 69.14 210.98 70.62 210.18 70.5 209.96 69.71 210.98 69.14"/>
        <polygon class="cls-7" points="192.31 68.33 192.32 69.87 192.69 69.68 193.3 68.57 192.31 68.33"/>
        <polygon class="cls-11" points="239.43 60.54 239.43 62.05 238.83 61.97 238.15 60.84 239.43 60.54"/>
        <polygon class="cls-11" points="208.54 63.6 208.54 65.17 209.23 65.1 209.31 64.24 208.54 63.6"/>
        <path class="cls-11" d="M209,65.87l11.11,6.41a2.44,2.44,0,0,0,2.45,0L239,62.75a.82.82,0,0,0,0-1.4l-11.11-6.41a2.44,2.44,0,0,0-2.45,0L209,64.48A.8.8,0,0,0,209,65.87Z"/>
        <path class="cls-19" d="M210.45,73l-2.06-1.19c.5-.34,1.27-.83,1.27-.83l.78.46Z"/>
        <path class="cls-7" d="M192.73,69.15l7-4a2.58,2.58,0,0,1,2.58,0l8.31,4.8a.82.82,0,0,1,0,1.42l-7,4a2.52,2.52,0,0,1-2.57,0l-8.31-4.8A.82.82,0,0,1,192.73,69.15Z"/>
        <path class="cls-10" d="M192.72,67.59l7-4a2.57,2.57,0,0,1,2.57,0l8.31,4.8a.82.82,0,0,1,0,1.42l-6.95,4a2.58,2.58,0,0,1-2.58,0L192.72,69A.82.82,0,0,1,192.72,67.59Z"/>
        <path class="cls-10" d="M209,64.31l11.11,6.41a2.42,2.42,0,0,0,2.44,0L239,61.18a.8.8,0,0,0,0-1.39l-11.11-6.42a2.49,2.49,0,0,0-2.45,0L209,62.91A.81.81,0,0,0,209,64.31Z"/>
        <path class="cls-20" d="M210.93,64l9.64,5.57a2.13,2.13,0,0,0,2.13,0l14.35-8.29a.7.7,0,0,0,0-1.21l-9.65-5.57a2.11,2.11,0,0,0-2.12,0L210.93,62.8A.7.7,0,0,0,210.93,64Z"/>
        <path class="cls-17" d="M210.93,63.7l9.64,5.57a2.13,2.13,0,0,0,2.13,0L237.05,61a.7.7,0,0,0,0-1.21L227.4,54.2a2.11,2.11,0,0,0-2.12,0l-14.35,8.29A.7.7,0,0,0,210.93,63.7Z"/>
        <path class="cls-11" d="M213.14,63.37l8,4.62a1.75,1.75,0,0,0,1.77,0l11.92-6.88a.57.57,0,0,0,0-1l-8-4.63a1.75,1.75,0,0,0-1.77,0l-11.92,6.88A.58.58,0,0,0,213.14,63.37Z"/>
        <path class="cls-10" d="M213.14,63.06l8,4.62a1.75,1.75,0,0,0,1.77,0l11.92-6.88a.57.57,0,0,0,0-1l-8-4.63a1.75,1.75,0,0,0-1.77,0l-11.92,6.88A.58.58,0,0,0,213.14,63.06Z"/>
        <path class="cls-10" d="M229.4,51.12l10.83,6.25,5.42-3.12s1.35-2.35-3.38-5.09S234.82,48,234.82,48Z"/>
        <path class="cls-15" d="M210.45,74.65a3.16,3.16,0,0,1-1.61-.43l-1.7-1a.52.52,0,0,1-.19-.71h0a.52.52,0,0,1,.71-.18l1.69,1a2.2,2.2,0,0,0,2.19,0l5.65-3.26a.5.5,0,0,1,.7.19h0a.51.51,0,0,1-.18.7l-5.65,3.26A3.19,3.19,0,0,1,210.45,74.65Z"/>
        <polygon class="cls-11" points="228.89 70.64 228.89 72.2 229.4 71.91 229.84 71.19 228.89 70.64"/>
        <polygon class="cls-11" points="247.52 68.31 247.52 69.83 247.01 69.68 246.38 68.68 247.18 68.45 247.52 68.31"/>
        <polygon class="cls-19" points="232.65 74.24 229.41 76.11 229.41 72.99 230.83 72.54 232.65 74.24"/>
        <polygon class="cls-13" points="257.55 48.31 256.24 49.07 256.37 47.71 257.55 48.31"/>
        <polygon class="cls-13" points="240.49 23.43 239.17 24.19 239.76 24.85 240.5 24.5 240.49 23.43"/>
        <path class="cls-13" d="M249.71,47.92v.84l-5.41-3.12V45a.5.5,0,0,1,.76-.44l4,2.32A1.24,1.24,0,0,1,249.71,47.92Z"/>
        <path class="cls-21" d="M246.32,46h0a.67.67,0,0,1-.67-.67v-5.7a.67.67,0,0,1,.67-.67h0a.67.67,0,0,1,.67.67v5.7A.67.67,0,0,1,246.32,46Z"/>
        <polygon class="cls-13" points="244.54 44.53 243.18 45.3 244.44 46.1 244.54 44.53"/>
        <polygon class="cls-13" points="248.35 49.54 249.71 48.76 247.73 47.38 248.35 49.54"/>
        <path class="cls-10" d="M242.94,46.42l5.41,3.12V48.7a1.26,1.26,0,0,0-.62-1.08l-4-2.32a.5.5,0,0,0-.76.44Z"/>
        <path class="cls-13" d="M241,23.43l15.82,9.12a2,2,0,0,1,1,1.73V47.84a.52.52,0,0,1-.79.46l-15.82-9.12a2,2,0,0,1-1-1.73V23.89A.52.52,0,0,1,241,23.43Z"/>
        <path class="cls-10" d="M238.88,38.23V24.67a.52.52,0,0,1,.79-.46l15.81,9.12a2,2,0,0,1,1,1.73V48.62a.53.53,0,0,1-.8.46L239.87,40A2,2,0,0,1,238.88,38.23Z"/>
        <path class="cls-22" d="M255.13,46.28a.52.52,0,0,1-.11.32.53.53,0,0,1-.69.14l-13.11-7.57a2,2,0,0,1-1-1.71V27a.54.54,0,0,1,.8-.46l13.1,7.57a2,2,0,0,1,1,1.72Z"/>
        <path class="cls-23" d="M240.33,37.35a2,2,0,0,0,1,1.72l8.65,5,4.46,2.58a.55.55,0,0,0,.59,0,.52.52,0,0,0,.11-.32V39.21h0V35.84a2,2,0,0,0-1-1.72L252.18,33h0l-1.85-1.07h0l-2.53-1.46-5.71-3.29L241,26.55a.55.55,0,0,0-.59,0,.58.58,0,0,0-.1.32Z"/>
        <polygon class="cls-24" points="250.33 31.92 255.13 41.96 255.12 39.21 255.12 39.2 252.18 32.99 252.18 32.99 250.33 31.92"/>
        <path class="cls-24" d="M242.09,27.17,250,44.06l4.46,2.58a.55.55,0,0,0,.59,0,.52.52,0,0,0,.11-.32v-.76L247.8,30.46Z"/>
        <path class="cls-11" d="M229.31,71.48,238.86,66a2.76,2.76,0,0,1,2.75,0l5.49,3.17a.84.84,0,0,1,0,1.45l-9.55,5.51a2.76,2.76,0,0,1-2.75,0l-5.49-3.16A.84.84,0,0,1,229.31,71.48Z"/>
        <path class="cls-17" d="M229.31,71.37l5.49,3.17a2.76,2.76,0,0,0,2.75,0L247.1,69a.84.84,0,0,0,0-1.46l-5.49-3.17a2.76,2.76,0,0,0-2.75,0l-9.55,5.52A.84.84,0,0,0,229.31,71.37Z"/>
        <path class="cls-11" d="M230.55,71.11l4.73,2.73a2.37,2.37,0,0,0,2.36,0l8.22-4.75a.72.72,0,0,0,0-1.25l-4.72-2.73a2.39,2.39,0,0,0-2.37,0l-8.22,4.75A.72.72,0,0,0,230.55,71.11Z"/>
        <path class="cls-10" d="M230.55,70.8l4.73,2.73a2.37,2.37,0,0,0,2.36,0l8.22-4.75a.72.72,0,0,0,0-1.25l-4.72-2.73a2.39,2.39,0,0,0-2.37,0l-8.22,4.75A.72.72,0,0,0,230.55,70.8Z"/>
        <ellipse class="cls-15" cx="201.17" cy="40.71" rx="8.21" ry="4.74" transform="translate(65.33 194.58) rotate(-60)"/>
        <path class="cls-15" d="M207.29,34.81a3.2,3.2,0,0,0-2.19-.28l.23-.9Z"/>
        <path class="cls-15" d="M199,49l-2-1.19.86-.15A3.17,3.17,0,0,0,199,49Z"/>
        <path class="cls-25" d="M209.05,38.6a12.82,12.82,0,0,1-5.81,10.06c-1.66,1-3.16,1-4.22.34a3.17,3.17,0,0,1-1.12-1.34,5.47,5.47,0,0,1-.46-2.35,12.85,12.85,0,0,1,5.8-10.06,6.12,6.12,0,0,1,1.86-.72,3.2,3.2,0,0,1,2.19.28h0C208.38,35.41,209.05,36.72,209.05,38.6Z"/>
        <path class="cls-9" d="M203.06,37.45a8.88,8.88,0,0,0-4,6.95c0,2.56,1.8,3.59,4,2.31a8.85,8.85,0,0,0,4-6.94C207.07,37.21,205.28,36.17,203.06,37.45Zm0,8.86c-2,1.17-3.66.22-3.66-2.11a8.07,8.07,0,0,1,3.66-6.34c2-1.17,3.66-.23,3.66,2.11A8.11,8.11,0,0,1,203.06,46.31Z"/>
        <path class="cls-9" d="M203.77,40.59a1.42,1.42,0,0,1-.65,1.12c-.36.21-.65,0-.65-.37a1.42,1.42,0,0,1,.65-1.12C203.48,40,203.77,40.18,203.77,40.59Z"/>
        <path class="cls-9" d="M204.22,43.28,202,44.55a5.3,5.3,0,0,1,.37-1.75,1.8,1.8,0,0,1,.73-.91.53.53,0,0,1,.7,0A2.52,2.52,0,0,1,204.22,43.28Z"/>
        <path class="cls-9" d="M202.15,41.73a1.31,1.31,0,0,1-.59,1c-.32.19-.59,0-.59-.34a1.33,1.33,0,0,1,.59-1C201.88,41.21,202.15,41.36,202.15,41.73Z"/>
        <path class="cls-9" d="M202.2,42.91a5.3,5.3,0,0,0-.37,1.75l-1.27.73s0-1.9,1-2.47A.5.5,0,0,1,202.2,42.91Z"/>
        <path class="cls-9" d="M204.06,40.63c0,.38.27.54.6.35a1.33,1.33,0,0,0,.6-1c0-.39-.27-.54-.6-.35A1.33,1.33,0,0,0,204.06,40.63Z"/>
        <path class="cls-9" d="M204,41.85a2.58,2.58,0,0,1,.36,1.3l1.24-.71s0-1.83-1-1.27A1.66,1.66,0,0,0,204,41.85Z"/>
        <polygon class="cls-9" points="203.28 47.45 202.85 47.7 202.85 45.53 203.28 45.28 203.28 47.45"/>
        <polygon class="cls-9" points="203.28 38.65 202.85 38.9 202.85 36.73 203.28 36.48 203.28 38.65"/>
        <polygon class="cls-9" points="207.88 39.55 205.94 40.67 205.94 40.16 207.88 39.05 207.88 39.55"/>
        <polygon class="cls-9" points="200.19 43.98 198.25 45.1 198.25 44.6 200.19 43.48 200.19 43.98"/>
        <polygon class="cls-26" points="226.64 40.43 226.35 40.26 224.96 25.9 225.08 25.86 226.64 40.43"/>
        <polygon class="cls-27" points="232.63 38.63 232.37 38.79 228.06 41.52 224.01 38.95 223.51 38.63 223.83 38.45 224.96 37.81 226.15 37.14 227.6 36.32 228.07 36.06 228.76 36.45 230.4 37.37 231.31 37.88 232.45 38.53 232.63 38.63"/>
        <path class="cls-28" d="M230.08,30.33l.12.22-1.29,10.23-.32.18,1.34-10.63a.17.17,0,0,1,.13-.14l1.48-.14Z"/>
        <path class="cls-29" d="M225.62,39.84l-.32-.18-1.14-9.11.11-.22-1.46-.28,1.5.15a.11.11,0,0,1,.1.11Z"/>
        <path class="cls-30" d="M232.45,38.53l-.08.26-1.37.87-2.94,1.86-.46-.29L224,38.94c0-.15-.12-.31-.18-.49-.36-1.05-.71-2.46-.16-2.82s.89,1,1.29,2.18c.27.78.56,1.47,1,1.47s.35-1,.22-2.14c-.16-1.31-.34-2.76.33-2.94s.89.92,1.12,2.12l0,.13c.25,1.35.43,2.8.8,2.83s.32-1.34.33-2.83c0-1.76.05-3.69.67-3.69s.74,1.38.86,2.87l.06.85c0,.31,0,.61.05.89.06,1.05.12,1.85.28,1.86s.37-.58.63-1.35l.18-.56c.44-1.35.95-2.9,1.42-2.79S232.9,36.9,232.45,38.53Z"/>
        <path class="cls-17" d="M231.54,38.51a1.57,1.57,0,0,0-.54,1.15l-2.94,1.86-.46-.29a.75.75,0,0,1,0-.51c.55-1.39-.25-1.93-.66-2.9s.16-1.18.66-1.37c.23-.09.46-.15.6-.21.46-.22-1-2.74-1-3.48s.8-.55,1.13-.63.07-2.59.53-2.51.48.33.62,1.84.75.05,1.32,1c.43.74-.34,2.1-.53,3.14a1.32,1.32,0,0,0,.06.85l0,0a2.51,2.51,0,0,0,1.12.8C232,37.55,232.2,37.8,231.54,38.51Z"/>
        <polygon class="cls-31" points="228.07 41.26 228.07 45.62 224.88 43.78 223.51 38.63 225.3 39.66 225.62 39.84 226.35 40.26 226.64 40.43 228.07 41.26"/>
        <polygon class="cls-32" points="232.63 38.63 231.26 43.78 228.07 45.62 228.07 41.26 228.59 40.96 228.91 40.77 229.51 40.43 229.79 40.27 232.63 38.63"/>
        <path class="cls-33" d="M229.79,40.27l-.28.16-.67-8.81a.16.16,0,0,1,.14-.16h0a.15.15,0,0,1,.14.14Z"/>
        <path class="cls-34" d="M224.27,30.33l-.11.22-.87,1.58-.43-.14a.54.54,0,0,0,.09-.31.56.56,0,0,0-.57-.56.53.53,0,0,0-.4.17,2.26,2.26,0,0,1-.23-.34.44.44,0,0,0-.3-.75h0a3.26,3.26,0,0,1-.09-.44Z"/>
        <path class="cls-15" d="M226.28,28.75a1.17,1.17,0,0,1,2.28-.36l.5-.24a1.11,1.11,0,0,1-.08-.41,1,1,0,0,1,1.64-.78,4.66,4.66,0,0,0,.41-.52.82.82,0,0,1,.4-1.54.85.85,0,0,1,.23,0,3.85,3.85,0,0,0,.06-1.33L225,25.9l1,3.2.35-.06A1.36,1.36,0,0,1,226.28,28.75Z"/>
        <path class="cls-34" d="M233,29.76a3.12,3.12,0,0,1-.11.53.32.32,0,0,0-.16,0,.4.4,0,0,0-.4.4.39.39,0,0,0,.23.36l-.2.3a.63.63,0,0,0-.42-.17.61.61,0,0,0-.61.61.6.6,0,0,0,.07.27,1.93,1.93,0,0,1-.34.11l-.86-1.58-.12-.22,1.46-.28Z"/>
        <path class="cls-20" d="M237.53,27.12V38.7a1.82,1.82,0,0,0,.77,1.47l12.63,7.29c.42.25.77,0,.77-.58V35.3a1.84,1.84,0,0,0-.77-1.47L238.3,26.54C237.87,26.29,237.53,26.55,237.53,27.12Z"/>
        <g class="cls-35">
          <path class="cls-36" d="M237.07,27.43V39a1.85,1.85,0,0,0,.78,1.47l12.62,7.29c.43.25.78,0,.78-.58V35.61a1.82,1.82,0,0,0-.78-1.47l-12.62-7.29C237.41,26.6,237.07,26.86,237.07,27.43Z"/>
        </g>
        <polygon class="cls-37" points="240.25 40.73 239.75 40.44 239.75 37.08 240.25 37.37 240.25 40.73"/>
        <polygon class="cls-37" points="241.47 41.43 240.96 41.14 240.96 36.1 241.47 36.4 241.47 41.43"/>
        <polygon class="cls-37" points="242.68 42.14 242.18 41.84 242.18 37.53 242.68 37.83 242.68 42.14"/>
        <polygon class="cls-37" points="243.9 42.84 243.39 42.55 243.39 38.78 243.9 39.07 243.9 42.84"/>
        <polygon class="cls-37" points="245.11 43.54 244.61 43.25 244.61 37.85 245.11 38.15 245.11 43.54"/>
        <polygon class="cls-37" points="246.33 44.24 245.82 43.95 245.82 37.34 246.33 37.64 246.33 44.24"/>
        <polygon class="cls-37" points="247.54 44.94 247.04 44.65 247.04 37.3 247.54 37.59 247.54 44.94"/>
        <polygon class="cls-37" points="248.76 45.64 248.25 45.35 248.25 37.23 248.76 37.52 248.76 45.64"/>
        <path class="cls-37" d="M249.53,35.08l-1.7-1,.38,1-4.82,1.4c-.08,0-.19,0-.28-.15l-1.76-2.38c-.09-.12-.21-.18-.29-.15l-2.16.81c-.12,0-.15.25-.06.47h0c.08.21.25.34.37.3l1.88-.7c.08,0,.2,0,.29.15l1.75,2.35c.09.12.2.18.28.15l5.1-1.48.36.9Z"/>
        <polygon class="cls-30" points="247.01 61.26 251.07 63.6 251.07 58.92 247.01 56.58 247.01 61.26"/>
        <polygon class="cls-38" points="255.13 56.58 251.07 58.92 249.58 58.06 248.5 57.44 247.01 56.58 251.07 54.23 252.56 55.09 253.64 55.72 255.13 56.58"/>
        <polygon class="cls-39" points="251.07 58.92 251.07 63.6 255.12 61.26 255.13 56.58 251.07 58.92"/>
        <polygon class="cls-9" points="253.64 55.72 249.58 58.06 248.5 57.44 252.56 55.09 253.64 55.72"/>
        <ellipse class="cls-40" cx="236.79" cy="70.27" rx="1.86" ry="0.94"/>
        <ellipse class="cls-40" cx="239.55" cy="68.7" rx="1.86" ry="0.94"/>
        <path class="cls-13" d="M239,67.53s0,.42,0,.49-.4.25-.43.36a.7.7,0,0,0,0,.22s.22.13.28.11a3.55,3.55,0,0,1,.49-.28,1.77,1.77,0,0,0,.29-.08l-.25-.85Z"/>
        <path class="cls-13" d="M240.19,68.12a1.51,1.51,0,0,1-.14.54c-.11.13-.3.24-.33.35a.46.46,0,0,0,0,.22s.12.22.58,0a1.94,1.94,0,0,0,.51-.25l-.24-1Z"/>
        <path class="cls-41" d="M238.72,65.3c0,.35.1,2.35.1,2.35.25.18.68-.05.68-.05s-.07-1.14-.09-1.69v-.28a2,2,0,0,1,.5-1,1.41,1.41,0,0,0,.23-1.09l-.28-.18-.36-.23A15.84,15.84,0,0,0,238.72,65.3Z"/>
        <path class="cls-42" d="M239.41,65.91v-.28a2,2,0,0,1,.5-1,1.41,1.41,0,0,0,.23-1.09l-.28-.18-.25.05s-.26.95-.07,1.2S239.21,65,239.41,65.91Z"/>
        <path class="cls-41" d="M240.72,68.2a.74.74,0,0,1-.65.09s-.41-2.1-.41-2.45.15-1.63.14-1.7-.11-.18-.06-.36l.1-.4,1,.3a1.84,1.84,0,0,1-.18,1.19c-.32.56-.39.83-.35,1Z"/>
        <path class="cls-43" d="M239,60.61s-.09-.43-.13-.43-.06.12-.07.12-.52-.21-.56-.2-.09.14.06.26a6.09,6.09,0,0,1,.49.52Z"/>
        <path class="cls-44" d="M239.55,62.8s-.06,0-.08,0a2.4,2.4,0,0,0,0,.38s.74.74,1.44.49l0-.42L240.2,63Z"/>
        <path class="cls-34" d="M239.07,60.49a.44.44,0,0,0-.4.37s.58,1.18.69,1.31.36,0,.36,0l.12-2.15s-.09,0-.11.08-.14,1.32-.18,1.36A7.83,7.83,0,0,1,239.07,60.49Z"/>
        <path class="cls-10" d="M239.54,62.8a1,1,0,0,0,.53.28l.09,0H241s.21-.92.35-1.62a5.38,5.38,0,0,0,.13-.78,1.8,1.8,0,0,0-.6-.45,2.28,2.28,0,0,0-1-.19C239.41,63.1,239.54,62.8,239.54,62.8Z"/>
        <path class="cls-43" d="M240.79,60v.33s-.41.33-.58,0V60Z"/>
        <path class="cls-45" d="M240.07,63.08l.09,0H241s.21-.92.35-1.62l-.28-.54s-.27.17-.26.77A2.64,2.64,0,0,1,240.07,63.08Z"/>
        <path class="cls-34" d="M239.61,63.2v.48s1.65-.34,1.7-.38.23-2.15.24-2.28,0-.3-.1-.32-.41,0-.45.43a16.11,16.11,0,0,1-.12,1.66A10.39,10.39,0,0,1,239.61,63.2Z"/>
        <path class="cls-43" d="M239.55,63.18a1.67,1.67,0,0,0-.27-.14s-.13,0-.15,0a1.18,1.18,0,0,0,.18.13,1,1,0,0,0-.33,0,.62.62,0,0,0-.21.29c0,.1,0,.22,0,.21l.66-.06a1.2,1.2,0,0,0,.32-.1l-.08-.34Z"/>
        <path class="cls-43" d="M237.94,63.1a.29.29,0,0,0,.21,0c.08-.06.2-.24.24-.24s0,.17,0,.17.49,0,.48.11a1.13,1.13,0,0,1-.2.35,3.78,3.78,0,0,1-.77.07Z"/>
        <polygon class="cls-34" points="238.06 63.01 238.06 63.6 236.97 63.72 237.13 63.04 238.06 63.01"/>
        <path class="cls-43" d="M237.4,60.81a4.65,4.65,0,0,1-.08.7c0,.14-.09.18-.14.15l-.26-.18-.23-.4.55-.39S237.41,60.68,237.4,60.81Z"/>
        <path class="cls-43" d="M237.18,61.66s-.09,0-.19.12a1.3,1.3,0,0,0-.14.4s-.37.07-.46-.14l.18-.53.39-.11Z"/>
        <path class="cls-46" d="M237.15,61.29s0-.17-.1-.16-.05.3,0,.29l-.2.29s-.25-.08-.33,0a1.19,1.19,0,0,1-.35-.85c0-.62.81-.64.81-.64l.58.4s0,.36-.17.44l0-.18s0,.26-.16.28S237.15,61.29,237.15,61.29Z"/>
        <path class="cls-39" d="M236,69.4s0,.26.07.27a3.06,3.06,0,0,1,.32,0,.56.56,0,0,1,.09.21.77.77,0,0,1-.31.13c-.19,0-.39.24-.5.21s-.21-.07-.2-.1.19-.84.19-.84Z"/>
        <path class="cls-13" d="M235.47,69.43a.73.73,0,0,0,.61,0l.44-1.75h0c.07-.27.12-.48.14-.53a6.64,6.64,0,0,0,0-1.13l-.25-1.36A2.91,2.91,0,0,0,236,65a.9.9,0,0,0-.38.5,8,8,0,0,0,.26,1.65C235.91,67.28,235.47,69.43,235.47,69.43Z"/>
        <path class="cls-47" d="M236.32,67a.76.76,0,0,1,.21.69c.07-.27.12-.48.14-.53a6.64,6.64,0,0,0,0-1.13l-.25-1.36A2.91,2.91,0,0,0,236,65l-.2.69S235.47,66.32,236.32,67Z"/>
        <path class="cls-39" d="M237.39,70.05s.06.33.11.35.22,0,.29,0,.09.2.09.2-.09.3-.77.41c-.11,0-.21-.13-.21-.13l.15-.85Z"/>
        <path class="cls-13" d="M237.5,70.17a.79.79,0,0,1-.6,0s.12-2.52.06-2.73-.59-.88-.75-1.2a2,2,0,0,1-.18-1,6.91,6.91,0,0,1,.32-.72l1.15,1.2a12.58,12.58,0,0,1,.21,1.62C237.69,67.78,237.5,70.17,237.5,70.17Z"/>
        <path class="cls-34" d="M235.5,65.45l.66.37.1-.88.11,1.16a4.28,4.28,0,0,0,.43,0,1.49,1.49,0,0,0,.86-.42,9.72,9.72,0,0,1-.35-2.38,1.75,1.75,0,0,1,.21-.57.44.44,0,0,1,.14-.17,3.75,3.75,0,0,0-.78-.43c-.41-.15-.78-.27-.86-.29s-.16.18-.26.71A11.46,11.46,0,0,0,235.5,65.45Z"/>
        <path class="cls-16" d="M236.8,66.05a1.49,1.49,0,0,0,.86-.42,9.72,9.72,0,0,1-.35-2.38,1.75,1.75,0,0,1,.21-.57l-.18-.11s-.27,0-.37.53,0,1.05-.18,1.21S236.8,65.63,236.8,66.05Z"/>
        <path class="cls-43" d="M238,65.63a2.27,2.27,0,0,1,.3,0s.21.11.2.14-.19,0-.19,0,.18.13.21.22a.57.57,0,0,1,0,.22,2,2,0,0,1-.3.27,3.41,3.41,0,0,1-.37-.25s-.15-.42-.15-.42Z"/>
        <path class="cls-48" d="M240.76,60s-.1.36-.29.35-.26-.24-.26-.24l.16-.1Z"/>
        <path class="cls-34" d="M238.08,65.61l-.39.39s-.65-1.38-.67-1.49.19-1.72.22-1.79a.34.34,0,0,1,.42-.21c.28.06-.17,1.63-.07,1.89S238.08,65.61,238.08,65.61Z"/>
        <path class="cls-43" d="M240.05,59.5a2.9,2.9,0,0,0,.18.66c.08.12.12.13.18.14s.26-.09.43-.4a.87.87,0,0,0,0-.66l-.7-.22A1.4,1.4,0,0,0,240.05,59.5Z"/>
        <path class="cls-46" d="M240.76,59.64s0-.06.07,0,0,.25-.06.27l0,.25a1.74,1.74,0,0,0,.26-.76c0-.34-.18-.56-.42-.58a.72.72,0,0,0-.43.08.46.46,0,0,0-.3.56.37.37,0,0,0,.19.29s.25-.21.17-.39c0,0,.24.35.41.25S240.76,59.64,240.76,59.64Z"/>
        <polygon class="cls-15" points="201.85 77.32 201.54 77.52 201.22 76.95 201.54 76.82 201.85 77.32"/>
        <polygon class="cls-15" points="200.58 71.3 200.27 71.5 200.42 71.86 200.81 71.74 200.58 71.3"/>
        <polygon class="cls-15" points="195.51 68.37 195.2 68.58 195.43 69.04 195.75 68.9 195.51 68.37"/>
        <polygon class="cls-16" points="193.92 72.74 193.61 72.95 193.06 72.25 193.49 72.06 193.92 72.74"/>
        <polygon class="cls-16" points="193.92 68.83 193.61 69.04 193.3 68.47 193.67 68.37 193.92 68.83"/>
        <polygon class="cls-16" points="187.27 64 187.58 63.79 187.71 64.41 187.27 64"/>
        <path class="cls-16" d="M193.92,71.37a2.43,2.43,0,0,1-1.09-1.9c0-.7.49-1,1.09-.64V67.46l-3.66-2.12a2.43,2.43,0,0,0-1.09-1.9c-.61-.35-1.1-.06-1.1.64l-.49-.29v5.29l2.07,1.2h0a2.44,2.44,0,0,0,1.1,1.9c.61.35,1.1.06,1.1-.64h0l2.07,1.2Z"/>
        <polygon class="cls-49" points="202.88 62.93 202.91 63 202.82 63 202.79 62.97 202.88 62.93"/>
        <path class="cls-49" d="M202.1,64.59l.81-1.59-.78-.3s.18-.65-.24-.82-.67.46-.67.46l-.57-.22-.76,1.56Z"/>
        <path class="cls-15" d="M202.07,64.52l.81-1.59-.78-.3s.2-.58-.21-.75-.7.39-.7.39l-.57-.22-.76,1.56Z"/>
        <path class="cls-50" d="M199.76,68.57s0,.33,0,.34.28,0,.27.3c0,0,0,.11-.28.17s-.32.26-.45.26a.57.57,0,0,1-.28-.15l.28-1Z"/>
        <path class="cls-41" d="M199.24,68.69a.65.65,0,0,0,.64,0s.13-.38.3-.84a7.3,7.3,0,0,0,.14-1.65l-.47-.24,0,0-.07,0a2.77,2.77,0,0,0-.07.3c-.06.37-.16,1-.16,1l-.07.37h0Z"/>
        <path class="cls-50" d="M201.38,69.44s0,.23.05.25.25-.06.37.07a.22.22,0,0,1,.06.2s-.62.49-.8.46a.39.39,0,0,1-.25-.12s.2-.94.21-1A2.11,2.11,0,0,1,201.38,69.44Z"/>
        <path class="cls-41" d="M201.1,68.37c-.09.54-.2,1.13-.2,1.13a.7.7,0,0,0,.67,0s.44-2.11.45-2.18a4.72,4.72,0,0,0-.45-.68l-.5.38-.26.2a2.09,2.09,0,0,1,.42.27,7.25,7.25,0,0,1-.13.86Z"/>
        <path class="cls-42" d="M201.1,68.37a3.84,3.84,0,0,1,.39-.87c.13-.09.06-.22-.12-.24a.75.75,0,0,1-.3-.22l-.26.2a2.09,2.09,0,0,1,.42.27A7.25,7.25,0,0,1,201.1,68.37Z"/>
        <path class="cls-42" d="M200.07,67.53s-.23-1.28-.22-1.57v0s0,0,0,0a2.07,2.07,0,0,0-.14.27c-.06.37-.16,1-.16,1l-.07.37Z"/>
        <path class="cls-34" d="M199.35,62.11s-.18,0-.23.09a12.26,12.26,0,0,0-.52,2c0,.37.66-.06.66-.06Z"/>
        <path class="cls-10" d="M199,66.67l.14.64a1.59,1.59,0,0,0,.86.38l-.17-1.58.44,1.6a1.32,1.32,0,0,0,.73-.21,2.2,2.2,0,0,0,.71-.78,6.91,6.91,0,0,1-.71-1.37c0-.22,0-1.25,0-1.25s.12-.5.21-.85c0-.16.07-.29.08-.31s-.12-.2-.2-.26a4.67,4.67,0,0,0-.94-.48,2.71,2.71,0,0,0-.73-.09c-.08,0-.14,0-.19.23A17,17,0,0,0,199,66.67Z"/>
        <path class="cls-43" d="M199.86,62.31c.2.33.59.13.59.13a.52.52,0,0,1,0-.11c0-.1.08-.22.08-.22l0,0a1.78,1.78,0,0,0-.47-.26Z"/>
        <path class="cls-48" d="M200.47,62.33c0-.1.08-.22.08-.22l0,0h-.06A2,2,0,0,1,200.47,62.33Z"/>
        <path class="cls-43" d="M200.85,61.23a1.37,1.37,0,0,1-.18.93l-.28-.11L200,61.5Z"/>
        <path class="cls-45" d="M201.18,66.44a9.76,9.76,0,0,1-.2,1.06,2.2,2.2,0,0,0,.71-.78,6.91,6.91,0,0,1-.71-1.37c0-.22,0-1.25,0-1.25s.12-.5.21-.85l-.12-.32a1.87,1.87,0,0,0-.47,1.58c.12,1,.14,1.35,0,1.41S201.18,66.23,201.18,66.44Z"/>
        <path class="cls-43" d="M202,64.5s.13-.14.11-.22a.73.73,0,0,1,0-.3s.11.13.12.13.23-.51.23-.51a.2.2,0,0,1,.07.19,1.66,1.66,0,0,1-.09.63,1.27,1.27,0,0,1-.31.26Z"/>
        <path class="cls-34" d="M202.3,64.75a.47.47,0,0,0-.4-.41s-.51.42-.55.37-.06-1.65-.07-1.75-.15-.16-.26,0a2.73,2.73,0,0,0-.21,1.55c.09.84.12,1.15.43,1.09S202.3,64.75,202.3,64.75Z"/>
        <path class="cls-51" d="M200.56,61.77s0-.16-.13-.13,0,.31.1.33-.06.18-.17.17-.47-.09-.47-.23-.21-.22-.21-.51.07-.93.85-.83.32.93.22,1S200.56,61.77,200.56,61.77Z"/>
        <path class="cls-34" d="M193.61,71.57a2.43,2.43,0,0,1-1.09-1.9c0-.7.49-1,1.09-.63V67.66L190,65.55a2.47,2.47,0,0,0-1.1-1.9c-.61-.35-1.1-.07-1.1.63l-.49-.28v5.29l2.08,1.19h0a2.43,2.43,0,0,0,1.09,1.9c.61.35,1.1.07,1.1-.63h0l2.07,1.2Z"/>
        <path class="cls-15" d="M201.85,73.41V72l-1.27-.73h0c0,.7-.49,1-1.1.63a2.42,2.42,0,0,1-1.1-1.9h0l-2.87-1.66v1.38h0c-.61-.35-1.1-.07-1.1.63a2.42,2.42,0,0,0,1.1,1.9h0v1.38l1.28.74a2.42,2.42,0,0,0,1.1,1.9c.6.35,1.09.06,1.09-.64l2.87,1.66V75.94c.61.35,1.1.07,1.1-.63A2.42,2.42,0,0,0,201.85,73.41Z"/>
        <path class="cls-43" d="M223.08,55.53s-.28-.19-.26-.24.06-.06.05-.11-.26-.4-.18-.43.15.21.21.19.25-.08.3,0a2,2,0,0,1,.15.51S223.14,55.58,223.08,55.53Z"/>
        <path class="cls-52" d="M226.36,57.44a.84.84,0,0,0-.37-.25c-.51-.1-1.41-.12-1.67-.48l-.86-1.23-.3.26a6.42,6.42,0,0,0,1,1.54,5.13,5.13,0,0,0,1.21.61Z"/>
        <path class="cls-53" d="M224.73,63.15V64a.07.07,0,0,0,.08.08h0a.08.08,0,0,0,.08-.07l.12-.83a.08.08,0,0,0-.1-.09l-.12,0A.08.08,0,0,0,224.73,63.15Z"/>
        <path class="cls-53" d="M227,62l.24.77a.09.09,0,0,1-.06.1h0a.07.07,0,0,1-.1,0l-.36-.76a.08.08,0,0,1,.06-.12h.13A.09.09,0,0,1,227,62Z"/>
        <path class="cls-53" d="M223.29,62.66l-.11.39a.1.1,0,0,0,.06.11h0a.1.1,0,0,0,.1,0l.19-.36a.08.08,0,0,0,0-.12l-.09,0A.08.08,0,0,0,223.29,62.66Z"/>
        <path class="cls-50" d="M222.14,58s-.17-.35-.25-.38-.2,0-.21.1a1.75,1.75,0,0,0,0,.35Z"/>
        <path class="cls-13" d="M224,58.37l-.1.11a2.64,2.64,0,0,0-.29-.36c-.1-.08-.92.35-.92.35l-.09-.11-.29-.33a10.06,10.06,0,0,1,1.42-.9c.19,0,.52.49.62.62S224.11,58.19,224,58.37Z"/>
        <path class="cls-47" d="M224,58.37l-.1.11a2.64,2.64,0,0,0-.29-.36c-.1-.08-.92.35-.92.35l-.09-.11a5.37,5.37,0,0,0,.9-.45c.07-.1.2-.14.21,0A2.35,2.35,0,0,0,224,58.37Z"/>
        <path class="cls-14" d="M223.77,58.49A.83.83,0,0,1,224,58a16.41,16.41,0,0,1,2-.8c.19,0,.41.24.41.24l-2,1Z"/>
        <path class="cls-50" d="M220.6,59a.35.35,0,0,1-.15-.12c0-.07-.14-.38-.26-.38s-.3.28-.28.45.24,1,.44,1,.41-.48.42-.5S220.6,59,220.6,59Z"/>
        <path class="cls-54" d="M225.65,57.54c0,.21-.63.13-.63.13s0-.13,0-.26v0a1,1,0,0,0-.07-.34v-.11l.52-.07Z"/>
        <path class="cls-48" d="M225.07,57.39a1,1,0,0,0-.07-.34v0h.07A1.2,1.2,0,0,1,225.07,57.39Z"/>
        <path class="cls-43" d="M224.67,56.09a2.41,2.41,0,0,0,0,.86c.06.14.1.17.19.14a2,2,0,0,0,.27-.14l.32-.61-.6-.47S224.68,55.84,224.67,56.09Z"/>
        <path class="cls-51" d="M224.92,56.65s0-.15.11-.15.09.37,0,.34a.35.35,0,0,0,.31.29c.28,0,.48-.14.47-.2s-.18,0-.2-.15a.6.6,0,0,0,.48-.44c.1-.39-.26-1.25-1-1a.53.53,0,0,0-.42,0,.55.55,0,0,0,0,.86l0-.13s0,.32.16.39S224.92,56.65,224.92,56.65Z"/>
        <path class="cls-13" d="M220.55,58.9a.48.48,0,0,0,.21.7,7.15,7.15,0,0,1,1.09-.79c.12,0,.65,1,1,1.32s.83-.81.83-.81-1.32-1.32-1.43-1.4a.5.5,0,0,0-.52,0C221.59,58,220.55,58.9,220.55,58.9Z"/>
        <path class="cls-47" d="M222.52,58.38s0-.07.08-.06.05.37.05.37.11-.09.14-.08,0,.16,0,.18-.18.14-.16.19.84.85.84.85l-.24.2-.94-1.12Z"/>
        <path class="cls-43" d="M222.6,59.08s0-.11,0-.15a1.21,1.21,0,0,0,.14-.2s.06-.2,0-.2-.11.13-.15.14,0-.42-.05-.46-.1.07-.13.07-.07,0-.12,0-.06.07-.09.07,0,0-.06,0a1.86,1.86,0,0,0-.08.49c0,.07.22.39.22.39A.29.29,0,0,0,222.6,59.08Z"/>
        <path class="cls-52" d="M222.28,59.26s0-.19.31-.2l.12.16-.34.23Z"/>
        <path class="cls-14" d="M222.37,59.45a.39.39,0,0,1,.34-.23,6.75,6.75,0,0,0,.68.55,13.25,13.25,0,0,0,.38-1.28.33.33,0,0,1,.4-.27c.27.06.36.59.23,1.12s-.84,1.4-1,1.36A10,10,0,0,1,222.37,59.45Z"/>
        <path class="cls-17" d="M227.28,62.18s.06.49-1.44.88a2.88,2.88,0,0,1-3.08-.86l-.56-1.59.47-.34.21-.14.51.56h.09a.46.46,0,0,0,.27-.22,5.61,5.61,0,0,0,.48-2h0L227.87,57Z"/>
        <path class="cls-53" d="M224.85,58.61s-1.13,0-.35-.34S227,57.15,227,57.15s1.6-.59.43.26A14,14,0,0,1,224.85,58.61Z"/>
        <path class="cls-53" d="M223.39,60.69h.09l-.07,0a.6.6,0,0,1-.74-.43l.21-.14Z"/>
        <path class="cls-53" d="M224.59,58.61a6.9,6.9,0,0,1-.84,1.85,5.61,5.61,0,0,0,.48-2h0Z"/>
        <path class="cls-55" d="M223.16,55.74s-.1-.2-.1-.2l.31-.21.09.15S223.53,55.66,223.16,55.74Z"/>
        <ellipse class="cls-40" cx="237.02" cy="53.21" rx="2.15" ry="1.09"/>
        <path class="cls-34" d="M236.39,44.73a.74.74,0,0,0-.18-.06s-.26.21-.46.8a4.15,4.15,0,0,0-.32,1.28c0,.12.63,1.17.63,1.17Z"/>
        <path class="cls-54" d="M237.24,44.65v.12a.11.11,0,0,0-.13.09s0,.1,0,.16a1,1,0,0,0,0,.13.43.43,0,0,1-.53-.12s.19-.68.19-.68l.39.23Z"/>
        <path class="cls-48" d="M237.24,44.65v.12a.11.11,0,0,0-.13.09s0,.1,0,.16h0s0-.11,0-.16-.06-.27-.06-.27h.1Z"/>
        <path class="cls-43" d="M237.54,43.79s0,.72-.15.9-.14.08-.14.08l-.67-.55S237.56,43.39,237.54,43.79Z"/>
        <path class="cls-50" d="M236.13,52s0,.24.13.25.17-.09.22.13a.34.34,0,0,1-.14.34l-.52.21c-.08,0-.21-.06-.21-.12s.11-.78.11-.78Z"/>
        <path class="cls-41" d="M237.17,49.6c0,.1-.39,1-.65,1.74h0c-.17.43-.29.77-.29.77a.57.57,0,0,1-.63,0s.67-1.81.71-1.94.28-1.68.28-1.68l.5-.13v.13A5.36,5.36,0,0,1,237.17,49.6Z"/>
        <path class="cls-50" d="M238.13,53s0,.28.12.3.21,0,.22.05a.36.36,0,0,1-.12.39c-.17.11-.6.35-.6.35s-.28-.05-.28-.15.18-.93.18-.93Z"/>
        <path class="cls-41" d="M238.19,53.12a.7.7,0,0,1-.65,0s0-.68,0-1.17h0c0-.19,0-.35,0-.44a7.18,7.18,0,0,0-.25-1.26l.24-.13.58-.32s.15.94.22,1.45A10.28,10.28,0,0,1,238.19,53.12Z"/>
        <path class="cls-42" d="M237.58,51.52a7.18,7.18,0,0,0-.25-1.26l.24-.13c0,.31.1.78.12,1a1.91,1.91,0,0,1-.12.78h0C237.57,51.77,237.57,51.61,237.58,51.52Z"/>
        <path class="cls-42" d="M237.17,49.6c0,.1-.39,1-.65,1.74.06-.18,0-.68,0-.93a3,3,0,0,0,0-1s.3-.56.54-1A5.36,5.36,0,0,1,237.17,49.6Z"/>
        <path class="cls-51" d="M237.24,44.2s0-.07-.11,0,0,.25.06.24a.33.33,0,0,1-.36.15,1.82,1.82,0,0,1-.36-.12.65.65,0,0,1-.17-.92s-.22-.13-.22-.17.17-.06.2-.12,0-.35.08-.35.12.16.15.13a.82.82,0,0,1,.92,0c.36.35.16.93,0,.94A.17.17,0,0,0,237.24,44.2Z"/>
        <path class="cls-10" d="M238.35,50.13a1.26,1.26,0,0,1-.32.25h0a1.12,1.12,0,0,1-.83.14L237,48.68l-.13,1.7a3.56,3.56,0,0,1-.81-.77s0-3.34.08-4.19c.07-.63.09-.71.13-.75a4.84,4.84,0,0,1,1.68.73,1,1,0,0,1,.06.26C238.15,46.65,238.35,50.13,238.35,50.13Z"/>
        <path class="cls-45" d="M238.35,50.13a1.26,1.26,0,0,1-.32.25h0a6.79,6.79,0,0,0,0-1.47c-.11-.28-.19-.25-.07-.52s-.59-1.26-.66-2,.43-.93.43-.93l.29.22C238.15,46.65,238.35,50.13,238.35,50.13Z"/>
        <path class="cls-43" d="M239.62,46.25s.09-.14.08-.2a.65.65,0,0,1,0-.28l.12-.1s.08,0,0,.16,0,.07,0,.07.42-.38.45-.38,0,.09-.05.16.06.21.07.27,0,.28,0,.29-.58.32-.58.32Z"/>
        <path class="cls-34" d="M239.64,46.13a.81.81,0,0,1,.26.65s-.93.7-1.1.8-.8-.61-1-.91-.55-1-.1-1.23.85,1,1,1.14.15.25.27.17S239.64,46.13,239.64,46.13Z"/>
      </g>
      <g class="cls-56">
        <g>
          <circle class="cls-57" cx="12.03" cy="19.84" r="3.99" transform="translate(-9.78 27.74) rotate(-78.69)"/>
          <polygon class="cls-57" points="16.01 -0.56 8.04 -0.6 8.04 19.84 16.01 19.84 16.01 -0.56"/>
        </g>
        <g>
          <circle class="cls-57" cx="21.16" cy="13.17" r="2.68"/>
          <polygon class="cls-57" points="23.85 -0.57 18.48 -0.6 18.48 13.17 23.84 13.17 23.85 -0.57"/>
        </g>
        <g>
          <circle class="cls-57" cx="30.72" cy="4.9" r="3.99"/>
          <polygon class="cls-57" points="34.71 -0.56 26.73 -0.6 26.73 4.91 34.7 4.91 34.71 -0.56"/>
        </g>
        <g>
          <circle class="cls-57" cx="39.85" cy="13.17" r="2.68"/>
          <polygon class="cls-57" points="42.54 -0.57 37.17 -0.6 37.17 13.17 42.54 13.17 42.54 -0.57"/>
        </g>
      </g>
      <g class="cls-56">
        <path class="cls-14" d="M14.77,28.81l-.25.25.69.68a.17.17,0,0,0,.12.05.18.18,0,0,0,.12-.05.18.18,0,0,0,0-.25l-.68-.68m-1-1a.17.17,0,0,0-.13.05.18.18,0,0,0,0,.25l.68.68.25-.25-.68-.68a.15.15,0,0,0-.12-.05"/>
        <path class="cls-14" d="M15.33,27.83a.13.13,0,0,0-.12.05l-.69.68-.25.25-.68.68a.18.18,0,0,0,0,.25.21.21,0,0,0,.13.05.18.18,0,0,0,.12-.05l.68-.68.25-.25.68-.68a.18.18,0,0,0,0-.25.15.15,0,0,0-.12-.05"/>
        <path class="cls-58" d="M21.88,26.23l-.46.53,1,.74-2.36,1c-.28.37-.54.73-.81,1.1l4.56-1.9-1.9-1.45m-2.19-1.68L19,29.61l.86-1.18.34-2.58,1.08.82.46-.53-2.08-1.59"/>
        <path class="cls-59" d="M53,14.62c-.16.17-.33.33-.5.49l.75,1-2.37.3a14.79,14.79,0,0,1-1.44.86v0l5.12-.64-1.55-2m-1.56-2.07-1.91,4.52c.36-.2.7-.4,1-.62h0l1.06-2.51.8,1.06.51-.49-1.48-2"/>
        <path class="cls-60" d="M19.22,29.58l-.2.09v-.06c-.38.54-.75,1.08-1.1,1.62C15.5,34.92,14,39.72,10.59,42.59c-3,2.5-7.26,3.15-11,3.27V46c3.81-.12,8.12-.77,11.14-3.3,3.47-2.91,4.94-7.73,7.37-11.39.38-.58.77-1.16,1.17-1.73m2.09-2.91c-.49.58-1,1.16-1.42,1.76v.12l.15-.07c.44-.58.91-1.16,1.39-1.72l-.11-.09m28.23-9.6a13.79,13.79,0,0,1-2.33,1c-6.07,2-12.8.24-18.75,3a20.71,20.71,0,0,0-6.69,5.13l.11.09a20.44,20.44,0,0,1,6.63-5.09c5.9-2.7,12.62-1,18.75-2.95a14.23,14.23,0,0,0,2.19-.92l.09-.2M52.42,15a14.5,14.5,0,0,1-1.84,1.45l.31,0a15.62,15.62,0,0,0,1.62-1.3L52.42,15M56.76-9.07l-.11.1a3,3,0,0,1,.53,1.14A20.74,20.74,0,0,1,58-1.51,43.07,43.07,0,0,1,57.5,4.9a17.52,17.52,0,0,1-4.57,9.61l.08.11a17.66,17.66,0,0,0,4.63-9.7,43.23,43.23,0,0,0,.53-6.43,21.11,21.11,0,0,0-.85-6.37,3.32,3.32,0,0,0-.56-1.19"/>
        <path class="cls-61" d="M19.89,28.43,19,29.61v.06l.2-.09c.27-.37.53-.73.81-1.1l-.15.07v-.12m1.88-2.29-.46.53.11.09.46-.53-.11-.09"/>
        <path class="cls-62" d="M50.89,16.41l-.31,0c-.34.22-.68.42-1,.62l-.09.2a14.79,14.79,0,0,0,1.44-.86m2-1.9-.51.49.09.11c.17-.16.34-.32.5-.49l-.08-.11"/>
      </g>
    </g>
  </g>
</svg>
